<?xml version="1.0" encoding="utf-8"?>
<!-- Generator: Adobe Illustrator 23.0.1, SVG Export Plug-In . SVG Version: 6.00 Build 0)  -->
<svg version="1.1" id="Layer_1" xmlns="http://www.w3.org/2000/svg" xmlns:xlink="http://www.w3.org/1999/xlink" x="0px" y="0px"
	 viewBox="0 0 129.6 26" style="enable-background:new 0 0 129.6 26;" xml:space="preserve">
<style type="text/css">
	.st0{fill-rule:evenodd;clip-rule:evenodd;fill:#249DD0;}
	.st1{fill:#249DD0;}
</style>
<g transform="translate(-3236 202)">
	<g transform="translate(3193.603 -543.471)">
		<g transform="translate(136.996 349.063)">
			<path class="st0" d="M14.5,2.4L14.5,2.4c0.1,0.2,0.2,0.4,0.2,0.5c0.1,0.2,0.1,0.3,0.2,0.5c0.1,0.3,1.2,2.9,1.2,3.1H13
				c0-0.2,0.1-0.3,0.1-0.5c0.1-0.2,0.1-0.3,0.2-0.5c0.1-0.3,0.2-0.7,0.4-1L14.3,3C14.4,2.8,14.4,2.6,14.5,2.4L14.5,2.4z M0.3,0.4
				c0.3,0,0.7,0.1,1,0.3l0.2,0.2C1.6,1,1.6,1.1,1.7,1.1c0.1,0.1,0.1,0.2,0.1,0.3C1.9,1.7,1.9,2,1.9,2.2v7.1c0,0.9-0.4,1.6-1.3,1.7
				c-0.3,0.1-0.4-0.1-0.4,0.2h12.9V11c-0.7,0-1.2-0.5-1.3-1.2l0,0C11.9,9.5,12,9.2,12,9c0.1-0.5,0.4-1,0.5-1.4l0.2-0.7h3.5
				c0.4,1,0.8,2.1,1.1,3.1c0,0.3-0.2,0.7-0.4,0.8c-0.3,0.2-0.7,0.3-1,0.3v0.2h5.2v-0.2c-0.3,0-0.6-0.1-0.8-0.2
				c-0.7-0.3-1-1.1-1.3-1.8l-1.5-3.7c-0.1-0.3-0.2-0.5-0.3-0.7S17,4.2,16.9,4l-1.5-3.7h-0.5c-0.1,0.2-0.2,0.5-0.3,0.7l-0.3,0.7
				c-0.3,0.9-0.8,2-1.1,2.9l-1.1,2.9c-0.4,1-0.9,2.6-1.7,3.2C10.3,10.9,10,11,9.7,11l0.1-2.7c0-0.2,0-0.2,0-0.4H9.6
				C9.5,8.5,9.3,9.1,9.1,9.7C9,9.8,9,9.8,8.9,9.9C8.8,10,8.8,10,8.7,10.1s-0.3,0.3-0.4,0.4c-0.1,0-0.2,0.1-0.2,0.1
				c-1,0.4-2.1,0.5-3.2,0.2c-1-0.4-1.2-1.4-1.2-2.6V2.3c0-1.3,0.5-1.8,1.6-1.9V0.3L0.3,0.4L0.3,0.4L0.3,0.4z"/>
			<path class="st1" d="M21.4,11.5h-5.7v-0.7H16c0.3,0,0.6-0.1,0.9-0.2c0.2-0.1,0.3-0.4,0.3-0.6c-0.2-0.7-0.4-1.4-0.7-2
				c-0.2-0.4-0.3-0.6-0.3-0.8H13l-0.2,0.5c0,0.1-0.1,0.2-0.1,0.3c-0.1,0.4-0.3,0.7-0.4,1.1c-0.1,0.2-0.1,0.5-0.2,0.7v0.1
				c0,0.5,0.5,0.9,1,0.9h0.3v0.8H0v-0.3c0-0.1,0-0.3,0.1-0.4c0.1-0.1,0.2-0.1,0.3-0.1s0.1,0,0.2,0c0.7-0.1,1.1-0.6,1.1-1.5V2.2
				c0-0.2,0-0.5-0.1-0.7c0-0.1-0.1-0.2-0.1-0.2V1.2L1.4,1.1L1.1,0.9C0.9,0.8,0.6,0.7,0.3,0.7V0.4H0V0h5.6v0.7H5.4
				C4.3,0.8,4,1.2,4,2.3v5.9c0,1.1,0.2,2,1,2.3c1,0.3,2,0.3,2.9-0.1c0.1-0.1,0.2-0.1,0.2-0.1c0.1-0.1,0.2-0.2,0.4-0.3
				c0.1-0.1,0.1-0.1,0.2-0.2c0.1-0.1,0.1-0.1,0.1-0.2c0.3-0.5,0.4-1,0.5-1.6V7.7L10,7.8V8c0,0.1,0,0.2,0,0.2v0.1v2.4
				c0.1,0,0.2-0.1,0.3-0.2c0.7-0.7,1.2-1.7,1.5-2.6c0.1-0.2,0.1-0.3,0.2-0.5l1.1-2.9c0.2-0.5,0.4-1,0.6-1.5c0.2-0.5,0.4-0.9,0.5-1.3
				L14.5,1c0.1-0.2,0.2-0.5,0.3-0.7L14.7,0h0.9l1.6,3.9c0.1,0.1,0.1,0.3,0.2,0.5c0,0.1,0.1,0.2,0.1,0.3c0.1,0.1,0.1,0.3,0.2,0.4
				l0.1,0.4l1.5,3.8c0.2,0.6,0.5,1.2,1.1,1.5c0.3,0.1,0.5,0.1,0.8,0.1h0.2L21.4,11.5z M17.2,11h2.7c-0.5-0.4-0.9-1-1.1-1.6l-1.7-4.1
				L17,4.8c0-0.1-0.1-0.2-0.1-0.3c-0.1-0.1-0.1-0.3-0.2-0.4l-1.4-3.5h-0.1C15.1,0.8,15.1,1,15,1.2l-0.3,0.7c0,0.1-0.1,0.2-0.1,0.3
				h0.2l0.1,0.2c0,0.2,0.1,0.3,0.2,0.5l0,0L15,3c0.1,0.1,0.1,0.2,0.1,0.4c0,0.1,0.1,0.4,0.3,0.7c0.7,1.7,0.9,2.2,0.9,2.4v0.1h0.1
				v0.3c0,0.1,0.2,0.5,0.3,0.9c0.4,0.7,0.6,1.5,0.8,2.3C17.7,10.4,17.5,10.7,17.2,11L17.2,11z M10.6,11h1.5
				c-0.3-0.3-0.5-0.7-0.5-1.1V9.7c0,0,0,0,0-0.1C11.4,10.2,11,10.6,10.6,11L10.6,11z M8,11h1.5l0.1-1.7C9.5,9.5,9.4,9.6,9.3,9.8
				C9.2,9.9,9.2,10,9.1,10.1C9,10.2,9,10.3,8.9,10.3c-0.1,0.1-0.3,0.3-0.4,0.4l0,0c-0.1,0-0.1,0.1-0.2,0.1l0,0
				C8.2,10.9,8.1,10.9,8,11L8,11z M1.5,11h3.2c-1-0.5-1.2-1.7-1.2-2.8V2.3C3.4,1.6,3.6,1,4.1,0.5H1.5l0.2,0.2
				c0.1,0.1,0.1,0.1,0.2,0.2c0,0,0,0,0,0.1l0,0C2,1.1,2,1.2,2.1,1.4C2.2,1.7,2.2,2,2.2,2.3v7.1C2.2,9.9,2,10.6,1.5,11L1.5,11z
				 M13.3,6.2h2.4c-0.2-0.5-0.6-1.4-0.8-1.9c-0.1-0.4-0.3-0.7-0.3-0.8s-0.1-0.2-0.1-0.3V3.1l-0.6,1.5c0,0.1-0.1,0.2-0.1,0.3
				c-0.1,0.2-0.2,0.5-0.3,0.7c0,0.1-0.1,0.2-0.1,0.3C13.4,6,13.4,6,13.3,6.2L13.3,6.2z"/>
		</g>
		<g transform="translate(154.091 349.17)">
			<path class="st0" d="M0.3,0.4c0.1,0,0.3,0,0.4,0.1c0.4,0.1,0.7,0.3,0.9,0.6C2,1.6,3.2,4.7,3.5,5.4L5.8,11c0.1,0.2,0,0.2,0.4,0.2
				c0.1,0,0.2-0.3,0.2-0.5l0.5-1.6C7.1,8.3,7.4,7.6,7.6,7l1.3-4c0-0.1,0-0.2,0.1-0.3l0.2,0.5C9.4,3.9,9.8,5,10,5.6
				c0,0.1,0.1,0.2,0.1,0.3l1.6,5c0,0.1,0.1,0.2,0.1,0.3h0.4c0-0.1,0.8-1.9,0.8-2.2l2.6-6.5c0.2-0.7,0.7-1.3,1.2-1.8
				c0.3-0.1,0.5-0.2,0.8-0.2V0.3H14v0.2c0.5-0.1,1,0.2,1.2,0.6c0.1,0.9,0,1.7-0.4,2.5l-2.1,5.3c0-0.1-0.1-0.3-0.1-0.4l-0.4-1.4
				c-0.5-1.4-0.9-3.1-1.4-4.5c-0.2-0.7-0.4-1.4,0.2-1.9c0.3-0.2,0.7-0.3,1.1-0.2V0.3h-5v0.2c0.6-0.1,1.2,0.3,1.4,0.9s0.2,1.2,0,1.8
				c0,0.1-0.1,0.3-0.1,0.4l-1.6,5c0,0.1,0,0.1-0.1,0.2L4,2.3C3.8,1.8,3.5,1,4.2,0.6c0.3-0.1,0.7-0.2,1-0.1V0.3L0.3,0.4L0.3,0.4
				L0.3,0.4z"/>
			<path class="st1" d="M12.3,11.4h-0.2h-0.5l-0.1-0.1c0-0.1-0.1-0.1-0.1-0.2V11l0,0L9.8,6c0-0.1-0.1-0.2-0.1-0.3
				c-0.1-0.5-0.4-1.3-0.6-2L9,3.5L7.8,7C7.6,7.7,7.4,8.4,7.1,9.1l-0.6,1.7c-0.1,0.3-0.1,0.6-0.4,0.6l0,0c-0.2,0-0.4,0-0.5-0.3
				c0,0,0,0,0-0.1L3.2,5.5c0-0.1-0.1-0.4-0.2-0.7c-0.4-1-1.3-3.2-1.5-3.6C1.3,1,1,0.8,0.7,0.8c-0.1,0-0.2,0-0.3,0H0.3H0V0h5.4v0.7
				H5.2c-0.3,0-0.6,0-0.9,0.1C4,1,4,1.4,4.3,2.2L6.6,8l1.5-4.5c0-0.1,0-0.2,0.1-0.3c0-0.1,0-0.1,0-0.2V2.9c0.2-0.5,0.2-1,0-1.5
				C8.1,1,7.6,0.7,7.1,0.7H6.8V0h5.6v0.7h-0.3c-0.3,0-0.7,0-1,0.2c-0.5,0.4-0.4,0.9-0.1,1.6s0.5,1.5,0.7,2.3s0.5,1.5,0.7,2.2
				l0.3,1.1l1.8-4.6C14.9,2.8,15,2,14.9,1.2c-0.1-0.3-0.4-0.5-1-0.5h-0.3V0h4.1v0.6h-0.2c-0.1,0-0.2,0-0.3,0.1
				c-0.2,0-0.3,0.1-0.4,0.1c-0.5,0.5-0.9,1-1.1,1.7L13,9.1c-0.7,1.7-0.8,2-0.8,2L12.3,11.4z M1.5,0.5c0.1,0.1,0.3,0.2,0.4,0.4
				c0.3,0.4,1,2.1,1.6,3.7c0.1,0.3,0.2,0.5,0.3,0.6L6,10.9l0,0c0-0.1,0-0.1,0.1-0.2v-0.1l0.5-1.5H6.5L3.8,2.4
				c-0.1-0.3-0.6-1.3,0-1.9L1.5,0.5z M6.1,10.9L6.1,10.9z M11.9,10.8L11.9,10.8c0.1-0.2,0.3-0.6,0.6-1.4L12.4,9c0-0.1,0-0.1,0-0.2
				c0-0.1-0.1-0.2-0.1-0.3l-0.4-1.4c-0.2-0.7-0.5-1.5-0.7-2.2s-0.5-1.5-0.7-2.2c-0.4-0.7-0.3-1.5,0.2-2.1H8.3C8.5,0.7,8.6,1,8.7,1.2
				C8.9,1.6,9,2.1,8.9,2.5l0,0l0.3-0.2l0.3,0.9l0.1,0.4c0.2,0.7,0.5,1.5,0.7,2c0,0.1,0,0.2,0.1,0.2L11.9,10.8z M15.1,0.6
				c0.1,0.1,0.2,0.2,0.3,0.4c0.1,0.3,0.2,0.7,0.1,1c0.2-0.5,0.5-1,0.9-1.4H15.1z"/>
		</g>
		<g transform="translate(73.716 348.903)">
			<path class="st0" d="M5.6,10.9c-0.5,0-1.1-0.1-1.5-0.5c-0.1-0.1-0.2-0.2-0.2-0.3C3.7,9.8,3.6,9.3,3.6,8.9V0.5
				c1-0.1,1.9,0,2.9,0.3c0.8,0.3,1.5,0.9,2,1.6C8.7,2.7,8.9,2.9,9,3.2c0.3,0.6,0.5,1.3,0.5,1.9c0.2,1.4,0,2.7-0.6,3.9L8,10.2
				C7.3,10.7,6.5,11,5.6,10.9L5.6,10.9z M0.3,0.4c0,0.1,0.2,0.1,0.3,0.1s0.3,0,0.4,0.1c0.2,0.1,0.4,0.2,0.5,0.3
				c0.2,0.2,0.3,0.3,0.3,0.6C1.9,1.7,1.9,2,1.9,2.3v6.9c0,1.2-0.5,1.7-1.5,1.8c-0.2,0-0.1,0-0.1,0.2h6.2c0.7,0,1.4-0.1,2.1-0.3
				c0.3-0.1,0.6-0.2,0.8-0.4c0.8-0.5,1.3-1.2,1.7-2c0.7-1.9,0.5-4-0.5-5.8c-0.1-0.2-0.3-0.4-0.4-0.6C10,1.9,9.9,1.8,9.8,1.7
				C9.7,1.6,9.7,1.6,9.6,1.5C9.5,1.4,9.3,1.3,9.2,1.2c-0.9-0.6-2.1-1-3.2-1H0.3V0.4L0.3,0.4z"/>
			<path class="st1" d="M0.3,11.4H0v-0.3c0-0.2,0-0.4,0.3-0.4l0,0c0.9-0.1,1.3-0.5,1.3-1.5V2.3c0-0.2,0-0.5-0.1-0.7
				c0-0.2-0.1-0.3-0.2-0.4l0,0C1.2,1,1,0.9,0.9,0.8l0,0c-0.1,0-0.2-0.1-0.3-0.1c0,0,0,0-0.1,0C0.1,0.7,0,0.5,0,0.4V0.1l0,0V0h6
				c1.2,0,2.4,0.3,3.3,1c0.1,0.1,0.3,0.2,0.4,0.3l0.1,0.1c0,0,0,0,0.1,0.1s0.3,0.3,0.4,0.4c0.2,0.2,0.3,0.4,0.5,0.6
				c1.1,1.8,1.3,4,0.6,6c-0.4,0.9-1,1.6-1.8,2.1C9.3,10.8,9,11,8.7,11.1c-0.7,0.2-1.4,0.3-2.2,0.3L0.3,11.4z M1.5,10.8h2.8
				c-0.1-0.1-0.2-0.1-0.3-0.2c-0.1-0.1-0.2-0.2-0.3-0.3l0,0C3.5,9.8,3.4,9.4,3.4,8.9V0.5H1.5c0.1,0.1,0.1,0.1,0.2,0.2
				C1.9,0.9,2,1.1,2.1,1.4c0,0.3,0.1,0.6,0.1,0.9v6.9C2.2,9.8,2,10.4,1.5,10.8L1.5,10.8z M6.7,0.6c0.6,0.2,1.1,0.6,1.5,1
				C8.4,1.8,8.6,2,8.8,2.3C9,2.5,9.1,2.8,9.3,3.1c0.3,0.6,0.5,1.3,0.6,2c0.2,1.4-0.1,2.8-0.7,4l0,0l-1,1.2c-0.2,0.2-0.4,0.3-0.6,0.4
				c0.3,0,0.6-0.1,1-0.2c0.3-0.1,0.5-0.2,0.7-0.3c0.7-0.5,1.3-1.1,1.6-1.9c0.7-1.8,0.5-3.9-0.5-5.5c-0.1-0.2-0.3-0.4-0.4-0.6
				C9.8,2.1,9.7,2,9.6,1.9L9.5,1.8c0,0,0,0-0.1-0.1l0,0C9.3,1.6,9.2,1.5,9.1,1.5C8.4,1,7.5,0.7,6.7,0.6L6.7,0.6z M4.2,10
				c0.1,0.1,0.1,0.2,0.2,0.2c0.4,0.3,0.8,0.4,1.3,0.4c0.8,0,1.5-0.2,2.1-0.7l0.9-1.2c0.6-1.1,0.8-2.4,0.6-3.6C9.2,4.5,9,3.9,8.8,3.3
				C8.6,3.1,8.5,2.8,8.3,2.6C7.9,1.9,7.2,1.4,6.4,1.1S4.8,0.7,3.9,0.8v8.1C3.9,9.3,4,9.7,4.2,10L4.2,10z"/>
		</g>
		<g transform="translate(109.405 348.886)">
			<path class="st0" d="M0.3,0.5c1.5,0,1.6,1.1,1.6,2.4v5.7c0,1.2-0.1,2.3-1.5,2.4c-0.2,0-0.2,0-0.2,0.2h3.6c0-0.3,0-0.1-0.5-0.3
				c-0.5-0.1-0.9-0.5-1-1C2.2,9,2.2,8.1,2.2,7.2V1.7c0.3,0.4,0.7,0.9,1,1.3L5,5.3c0.2,0.2,0.3,0.4,0.5,0.6l2.3,3
				C7.9,9,8.1,9.2,8.2,9.4l0.6,0.7c0,0.1,0.1,0.1,0.1,0.1c0.1,0.1,0.6,0.9,0.7,0.9H10V2.3c0-1,0.3-1.7,1.3-1.9
				c0.3,0,0.4,0.1,0.4-0.2H8c0,0.3,0,0.1,0.5,0.2s0.9,0.4,1,0.8C9.6,2,9.7,2.8,9.6,3.6v4.9C9.2,8,8.5,7,8.1,6.4
				c-0.6-0.8-1.3-1.8-2-2.6L3.4,0.4c0-0.1-0.1-0.1-0.1-0.1h-3L0.3,0.5L0.3,0.5z"/>
			<path class="st1" d="M10.2,11.4H9.6c-0.2,0-0.3-0.1-0.8-0.8c0-0.1-0.1-0.1-0.1-0.1l0,0c0,0,0,0,0-0.1s0-0.1-0.1-0.1L8,9.6
				L7.8,9.3L7.6,9L5.3,6L5,5.7L4.8,5.4L3.1,3.2C2.9,3,2.8,2.8,2.6,2.6L2.5,2.5v4.7c0,0.2,0,0.4,0,0.6c0,0.7,0,1.3,0.1,2
				c0.1,0.4,0.4,0.7,0.8,0.8c0.1,0,0.2,0,0.4,0c0.4,0,0.4,0.3,0.4,0.5v0.3H0v-0.3c0-0.2,0-0.5,0.4-0.5c0,0,0,0,0.1,0
				c1-0.1,1.2-0.7,1.2-2.1V2.9c0-1.5-0.2-2.1-1.4-2.1V0.5H0V0h3.2c0.1,0,0.3,0.1,0.4,0.2l0,0l2.6,3.4c0.5,0.6,1,1.3,1.5,2l0.5,0.6
				C8.4,6.4,8.6,6.7,8.8,7C9,7.2,9.2,7.5,9.4,7.7V3.6c0-0.1,0-0.2,0-0.4c0-0.6,0-1.2-0.1-1.8C9.1,1.1,8.8,0.8,8.4,0.8
				c-0.1,0-0.2,0-0.3,0c-0.3,0-0.4-0.2-0.4-0.4V0h4.2v0.3c0,0.1,0,0.3-0.1,0.4s-0.2,0.1-0.3,0.1s-0.1,0-0.2,0
				c-0.8,0.1-1.1,0.6-1.1,1.6L10.2,11.4z M1.5,10.9h1.2c-0.3-0.2-0.5-0.6-0.6-0.9l0,0C2,10.3,1.8,10.6,1.5,10.9L1.5,10.9z M9.1,10.1
				l0.1,0.1c0.1,0.1,0.3,0.5,0.5,0.6V8.9L9.4,8.6c-0.3-0.3-0.7-0.9-1-1.3C8.2,7,8,6.8,7.9,6.6L7.4,6c-0.5-0.7-1-1.4-1.5-2L3.2,0.5
				H1.5C1.7,0.7,1.9,1,2,1.2V1l0.5,0.5C2.6,1.8,2.8,2,3,2.3c0.2,0.2,0.3,0.4,0.5,0.6l1.7,2.2l0.2,0.3l0.2,0.3l2.3,3L8.1,9l0.2,0.3
				L9,10C9,10,9.1,10,9.1,10.1C9.1,10,9.1,10.1,9.1,10.1L9.1,10.1z M9.2,0.5c0.2,0.2,0.4,0.4,0.5,0.7c0,0.1,0.1,0.2,0.1,0.3
				c0.1-0.4,0.3-0.7,0.6-0.9H9.2V0.5z"/>
		</g>
		<g transform="translate(86.527 348.904)">
			<path class="st0" d="M0.3,0.4C0.3,0.5,0.4,0.5,0.3,0.4C1.6,0.5,2,1.2,2,2.4v6.5c0,0.9-0.1,1.3-0.6,1.7c-0.2,0.2-0.4,0.2-0.7,0.3
				c-0.4,0.1-0.4-0.1-0.4,0.2h9.3l0.1-1.6c0-0.1,0-0.2,0-0.4c0-0.1,0-0.3,0-0.4V7.9H9.6c-0.1,1-0.6,1.8-1.3,2.4
				C7.2,11,5.9,11,4.7,10.6C4.4,10.5,4.2,10.3,4,9.9C3.9,9.8,3.9,9.6,3.8,9.4C3.7,8.1,3.6,6.9,3.7,5.6c1.1,0,2,0,2.4,1.2
				c0.1,0.3,0.2,0.6,0.2,0.9h0.2c0-0.5,0-0.9,0-1.3v-3H6.3c0,0.3-0.1,0.5-0.1,0.8C5.8,5.4,4.7,5.3,3.7,5.3V0.5
				c1.1-0.1,2.2,0,3.3,0.2c0.6,0.2,1.1,0.6,1.4,1.2c0.1,0.3,0.2,0.7,0.3,1h0.2c0-0.3,0-0.4,0-0.7L8.7,1V0.6c0-0.2,0-0.2,0-0.3
				L0.3,0.4L0.3,0.4L0.3,0.4z"/>
			<path class="st1" d="M9.9,11.4H0.1v-0.3c0-0.2,0-0.5,0.4-0.5c0.1,0,0.1,0,0.2,0l0,0c0.2,0,0.4-0.1,0.6-0.2
				c0.4-0.3,0.5-0.6,0.5-1.5V2.4c0-1.2-0.3-1.6-1.3-1.7l0,0c-0.1,0-0.2,0-0.3-0.1H0V0h8.9v0.3v0.1c0,0.1,0,0.2,0,0.2V1L9,2.3
				c0,0.1,0,0.2,0,0.3s0,0.2,0,0.3v0.3H8.4V3c0-0.3-0.1-0.6-0.3-0.9c-0.2-0.6-0.7-1-1.2-1.2C6,0.8,5.1,0.7,4.2,0.8H3.9V5
				c1.1,0,1.7-0.1,2-0.9C5.9,3.9,6,3.6,6,3.4V3.1h0.7v3.3c0,0.2,0,0.5,0,0.7s0,0.4,0,0.7V8H6V7.7c0-0.3-0.1-0.6-0.2-0.9
				C5.5,6,4.9,5.8,4,5.8c0,0,0,0.1,0,0.2c0,1.1,0,2.3,0.1,3.4c0,0.2,0.1,0.3,0.2,0.4c0.1,0.3,0.3,0.5,0.6,0.6
				c1.1,0.4,2.2,0.3,3.2-0.2c0.7-0.6,1.1-1.4,1.2-2.3V7.7H10v1.1v0.1c0,0.1,0,0.2,0,0.3v0.1c0,0.1,0,0.1,0,0.2L9.9,11.4z M7.9,10.8
				h1.4V9.5c0-0.1,0-0.2,0-0.3c-0.2,0.6-0.6,1-1.1,1.4C8.2,10.7,8.1,10.8,7.9,10.8L7.9,10.8z M1.5,10.8h3c-0.3-0.2-0.6-0.4-0.8-0.8
				c0-0.1-0.1-0.3-0.1-0.5C3.4,8.3,3.4,7.2,3.4,6c0-0.2,0-0.3,0-0.4l0,0v-5H1.6C2.1,1,2.3,1.7,2.2,2.4v6.5
				C2.3,9.6,2.1,10.4,1.5,10.8L1.5,10.8z M5.2,5.4c0.4,0.2,0.8,0.5,1,0.9V4.7C6,5.1,5.6,5.4,5.2,5.4L5.2,5.4z M7.3,0.5
				c0.5,0.2,0.9,0.6,1.1,1.1V1V0.6c0,0,0,0,0-0.1H7.3z"/>
		</g>
		<g transform="translate(97.068 348.904)">
			<path class="st0" d="M0.3,0.4c0,0.1,0.3,0.1,0.7,0.2c0.8,0.3,0.9,1.1,0.9,1.9v6.4c0,1.1-0.2,1.8-1.3,2c-0.4,0.1-0.4-0.1-0.4,0.2
				h3.6v-0.2c-1.5,0-1.6-1.1-1.6-2.4V1.7c0.2,0.2,0.3,0.4,0.5,0.6C2.9,2.5,3,2.7,3.2,2.9l0.5,0.6C3.9,3.7,4,3.9,4.2,4.1l5.3,6.8
				c0.3,0.3,0.1,0.3,0.6,0.3V2.5c0-0.8,0.1-1.6,0.9-1.9c0.7-0.3,0.7,0.1,0.7-0.3H8c0,0.3,0,0.1,0.5,0.2c1.4,0.3,1.2,1.8,1.2,3.1v4.9
				c-0.1-0.1-0.9-1.1-1-1.3C7.4,5.6,6.1,3.9,4.9,2.3C4.7,2.1,4.6,2,4.5,1.8L3.4,0.4c-0.1-0.1-0.1,0-0.1-0.1L0.3,0.4L0.3,0.4L0.3,0.4
				z"/>
			<path class="st1" d="M9.7,11.4c-0.2,0-0.4-0.1-0.4-0.2l-0.1-0.1L3.9,4.2C3.8,4.1,3.7,4,3.7,3.9C3.6,3.8,3.5,3.7,3.4,3.7L3,3.1
				L2.7,2.8L2.5,2.5v6c0,1.5,0.2,2.1,1.4,2.1h0.3v0.7H0V11c0-0.2,0-0.5,0.4-0.5c0.1,0,0.1,0,0.2,0c0.8-0.1,1-0.6,1-1.7V2.5
				c0-1-0.2-1.5-0.7-1.6c-0.1,0-0.3-0.1-0.4-0.1C0.3,0.7,0,0.7,0,0.4V0.1l0,0V0h3.5v0.2l0,0l1.1,1.4c0.1,0.1,0.1,0.2,0.2,0.3
				C5,2,5,2.1,5.1,2.2c0.7,0.8,1.3,1.7,2,2.6C7.7,5.5,8.3,6.3,8.8,7L9,7.3c0.1,0.1,0.2,0.3,0.4,0.5V3.6c0-0.1,0-0.3,0-0.4
				c0-1.3,0-2.2-1-2.4c-0.1,0-0.2,0-0.3,0c-0.4,0-0.4-0.2-0.4-0.4V0h4.1v0.3c0,0.1,0,0.3-0.1,0.4s-0.2,0.1-0.3,0.1
				c-0.2,0-0.3,0-0.5,0.1c-0.5,0.2-0.7,0.7-0.7,1.7v8.9H10L9.7,11.4L9.7,11.4z M1.5,10.8h1.2c-0.3-0.2-0.5-0.6-0.6-1
				C2,10.3,1.8,10.6,1.5,10.8z M2,1l0.5,0.5C2.7,1.7,2.8,1.9,3,2.1c0,0.1,0.1,0.2,0.1,0.3l0.2,0.3l0.5,0.6C3.9,3.4,4,3.5,4.1,3.6
				s0.1,0.2,0.2,0.3l5.3,6.8c0,0.1,0.1,0.1,0.1,0.1v-2L9.5,8.7C9.1,8.3,8.8,8,8.6,7.6L8.4,7.4C7.8,6.6,7.2,5.8,6.7,5.1
				C6,4.2,5.3,3.3,4.7,2.5C4.6,2.4,4.5,2.3,4.5,2.2S4.4,2.1,4.3,2L3.2,0.6l0,0l0,0H1.5C1.7,0.7,1.9,0.9,2,1.2V1z M9.2,0.5
				c0.3,0.3,0.5,0.6,0.6,1c0.1-0.4,0.3-0.8,0.6-1H9.2z"/>
		</g>
		<g transform="translate(127.972 348.596)">
			<path class="st0" d="M0.7,3.3c0,0.8,0.2,1.5,0.8,2.1C1.9,5.7,2.3,6,2.8,6.2c0.3,0.2,0.7,0.3,1,0.6c0.7,0.3,1.3,0.9,1.5,1.7
				c0.4,1.1-0.1,2.3-1.2,2.8c-0.6,0.3-1.4,0.2-2-0.2c-0.3-0.2-0.6-0.5-0.8-0.8C1,9.6,0.7,8.9,0.5,8.1H0.3c0,0.4,0,0.7,0,1.1v2.2
				c0.3,0,0.2-0.1,0.3-0.2c0.3-0.3,0.8-0.1,1,0.1c0.2,0.1,0.4,0.2,0.6,0.2c0.9,0.3,2,0.3,2.9,0c0.3-0.1,0.6-0.3,0.8-0.5l0.3-0.3
				c0.9-0.9,1.2-2.3,0.7-3.5c-0.1-0.4-0.3-0.7-0.6-1C5.6,5.5,4.7,5,3.8,4.6C3.5,4.5,3.2,4.3,2.9,4.2C2.1,3.7,1.7,2.6,2,1.7
				C2.3,1,2.9,0.6,3.6,0.6c0.5,0,0.9,0.1,1.3,0.4c0.4,0.3,0.7,0.7,0.9,1.2c0.2,0.3,0.3,0.7,0.4,1c0,0.1,0.1,0.2,0.1,0.3v0.1
				c0,0.1,0,0.1,0.2,0.1c0-1.1-0.1-2.1-0.1-3.2c-0.3,0-0.1,0-0.3,0.2C5.8,1.4,4.3-0.4,2.4,0.5C1.3,1.1,0.7,2.1,0.7,3.3L0.7,3.3z"/>
			<path class="st1" d="M3.6,12c-0.5,0-1-0.1-1.5-0.2c-0.2-0.1-0.4-0.2-0.6-0.2l0,0c-0.2-0.1-0.6-0.3-0.7-0.1l0,0
				c-0.1,0.3-0.3,0.3-0.5,0.3H0V9.2C0,9,0,8.8,0,8.6s0-0.3,0-0.5V7.8h0.7V8c0.2,0.7,0.5,1.5,0.9,2.1c0.2,0.3,0.4,0.5,0.7,0.7
				c0.7,0.4,1.5,0.4,2.2-0.1c0.6-0.5,0.9-1.4,0.6-2.2c-0.2-0.7-0.6-1-1.4-1.4l0,0C3.5,6.9,3.3,6.8,3.1,6.7C3,6.6,2.8,6.6,2.7,6.5
				C2.6,6.4,2.5,6.4,2.3,6.3c-0.4-0.2-0.7-0.4-1-0.7C0.7,5,0.4,4.1,0.4,3.3l0,0c0-0.9,0.3-1.7,0.9-2.3c0.3-0.3,0.6-0.5,0.9-0.7
				c1-0.4,2.1-0.4,3,0.1c0.3,0.1,0.6,0.3,0.7,0.2c0,0,0,0,0-0.1C6,0.2,6.3,0.2,6.5,0.2h0.3v0.3c0,0.5,0,1.1,0,1.6s0,1.1,0,1.6V4H6.4
				C6.3,4,6.1,3.9,6,3.7l0,0V3.6l0,0l0,0c0-0.1-0.1-0.2-0.1-0.3l0,0C5.8,3,5.7,2.6,5.5,2.3C5.4,1.8,5.1,1.4,4.7,1.1
				C4.4,0.9,4,0.8,3.5,0.8s-1,0.4-1.2,1C2,2.6,2.3,3.5,3.1,3.9C3.4,4.1,3.7,4.2,4,4.4c0.2,0.1,0.3,0.2,0.5,0.3C5.2,5,5.9,5.4,6.5,6
				C6.8,6.3,7,6.7,7.1,7.1c0.5,1.3,0.2,2.8-0.8,3.8l0,0L6,11.2c-0.3,0.2-0.6,0.4-0.9,0.5C4.7,11.9,4.2,12,3.6,12z M0.9,3.3
				c0,0.7,0.2,1.4,0.7,1.9c0.3,0.3,0.6,0.5,1,0.6C2.7,5.9,2.8,5.9,2.9,6C3,6.1,3.2,6.1,3.3,6.2C3.6,6.3,3.8,6.5,4,6.6l0,0
				c0.8,0.3,1.4,1,1.6,1.8c0.3,1,0,2.1-0.8,2.8l0,0c0.1,0,0.2-0.1,0.2-0.1c0.3-0.1,0.5-0.2,0.7-0.4L6,10.5c0.8-0.9,1.1-2.1,0.7-3.3
				C6.5,6.9,6.3,6.6,6.1,6.4C5.5,5.9,4.9,5.5,4.2,5.2C4,5.1,3.9,5,3.7,4.9C3.4,4.8,3.1,4.6,2.8,4.4c-1-0.6-1.4-1.8-1-2.8
				c0-0.2,0.1-0.4,0.2-0.5C1.9,1.2,1.8,1.3,1.7,1.4C1.2,1.9,1,2.6,0.9,3.3z M0.9,10.7c0.2,0,0.4,0.1,0.6,0.2
				c-0.1-0.1-0.3-0.3-0.4-0.4c-0.3-0.4-0.5-0.8-0.7-1.3l0,0v1.6C0.7,10.8,0.8,10.7,0.9,10.7L0.9,10.7z M5.4,1.1C5.7,1.3,5.9,1.7,6,2
				c0.1,0.2,0.1,0.3,0.2,0.5c0-0.1,0-0.3,0-0.4c0-0.3,0-0.7,0-1C6,1.2,5.7,1.2,5.4,1.1L5.4,1.1z"/>
		</g>
		<g transform="translate(121.681 348.886)">
			<path class="st0" d="M0.3,0.4C0.3,0.6,1,0.3,1.6,1C1.9,1.5,2,2.1,1.9,2.7v6.1c0.1,0.6,0,1.1-0.3,1.6C1.3,10.8,0.9,11,0.4,11
				c-0.2,0-0.2,0-0.2,0.2h5c0-0.2,0-0.2-0.1-0.2c-1.2-0.1-1.5-0.8-1.5-2.1V2.6c0-0.6,0.1-1.2,0.5-1.7c0.1-0.1,0.3-0.2,0.4-0.3
				s0.2-0.1,0.4-0.1c0.1,0,0.1,0,0.2,0c0.2,0,0.2,0,0.2-0.2h-5L0.3,0.4L0.3,0.4z"/>
			<path class="st1" d="M5.5,11.4H0v-0.3c0-0.1,0-0.4,0.3-0.4h0.1c0.4,0,0.7-0.2,0.9-0.5c0.2-0.5,0.3-1,0.3-1.5v-6
				c0.1-0.5,0-1-0.3-1.5C1.2,0.9,0.8,0.8,0.5,0.8c-0.1,0-0.3,0-0.4-0.1H0V0h5.5v0.3c0,0.1,0,0.4-0.3,0.4l0,0H5.1H5l0,0
				c-0.1,0-0.2,0-0.3,0.1l0,0C4.5,0.9,4.4,1,4.3,1.1C4,1.5,3.8,2.1,3.9,2.6v6.2c0,1.3,0.3,1.7,1.3,1.8h0.1c0.3,0,0.3,0.3,0.3,0.5
				L5.5,11.4z M1.5,10.9h2.6c-0.6-0.5-0.8-1.3-0.7-2V2.6C3.3,1.9,3.5,1.3,3.9,0.7C4,0.7,4,0.6,4.1,0.5H1.5c0.1,0.1,0.2,0.2,0.3,0.3
				C2.1,1.4,2.3,2,2.2,2.7v6.1c0.1,0.6-0.1,1.3-0.4,1.8C1.7,10.7,1.6,10.8,1.5,10.9L1.5,10.9z"/>
		</g>
	</g>
	<g transform="translate(0 0)">
		<g transform="translate(3238.13 -190.11)">
			<path class="st0" d="M0.2,0.5c0.2,0,0.5,0,0.7,0.1c0.5,0.1,1,0.4,1.3,0.9l0.1,0.1V2c0,0.1,0,0.1,0,0.2C2.4,3.4,2.5,4.7,2.4,6
				c0,0.2,0,0.2,0,0.4c0,0.3,0,0.7,0,1.1c0,0.1,0,0.2,0,0.3c0,0.5-0.1,1-0.3,1.5C2,9.6,1.7,9.9,1.2,10c-0.3,0.1-0.7,0.2-1,0.2v0.3
				h13.3l0.2-0.1c0,0,0.1,0,0.1-0.1c0,0,0.1,0,0.1-0.1l0.5-0.4c0.2-0.2,0.4-0.4,0.5-0.7l0.3-0.5c0.1-0.2,0.2-0.4,0.2-0.6V7.9
				l0.1-0.4c0-0.1,0.1-0.2,0.1-0.3c0-0.1,0.1-0.2,0.1-0.3c0.1-0.3,0.1-0.6,0.2-0.9c0-0.2,0.1-0.3,0.2-0.5s0.2-0.3,0.3-0.4
				c0.2-0.2,0.4-0.3,0.7-0.4c0,0,0.1,0,0.1-0.1l0.5-0.1c0.3,0,0.2,0.1,0.2-0.3c0-0.1,0-0.1-0.1-0.1h-7.1v0.3
				c0.3,0.2,1.5-0.1,2.1,1.1c0,0.1,0,0.1,0.1,0.2C13,6,13,5.7,13,6.2l-0.4,1.4l-0.2,0.3c-0.1,0.2-0.3,0.4-0.4,0.6
				c-0.2,0.2-0.4,0.4-0.7,0.6l-0.4,0.2c-0.1,0.1-0.3,0.2-0.4,0.2c-0.1,0-0.1,0-0.2,0.1C9.6,9.8,8.9,9.9,8.1,9.9
				c-0.3,0-0.6,0-0.9-0.1C7.3,10,7.1,10,7,10C6.5,9.9,6.1,9.6,5.8,9.3C5.6,9.1,5.5,8.9,5.4,8.7S5.2,8.2,5.1,8C5,7.5,5,7.1,5,6.6
				C4.9,6.2,5,4,5,3.4c0-0.2,0-0.2,0-0.3c0-0.3,0-0.6,0.1-0.9c0.1-0.4,0.2-0.7,0.4-1L5.7,1c0.1,0,0.1-0.1,0.2-0.1
				c0.2-0.1,0.3-0.2,0.5-0.2c0.3-0.1,0.5-0.1,0.8-0.1c0.2,0,0.1-0.1,0.1-0.4H0.2V0.5z"/>
			<path class="st1" d="M13.4,10.7H0V10h0.2c0.3,0,0.7-0.1,1-0.2C1.5,9.7,1.8,9.4,2,9.1c0.2-0.5,0.3-1,0.3-1.4c0-0.1,0-0.2,0-0.4
				c0-0.2,0-0.5,0-0.7c0-0.1,0-0.2,0-0.4c0-0.1,0-0.1,0-0.2s0-0.1,0-0.2c0-0.3,0-0.6,0-0.9c0-0.9,0-1.9-0.1-2.8l0,0V2L2.1,1.8L2,1.6
				C1.8,1.2,1.4,0.9,0.9,0.8c-0.2,0-0.5-0.1-0.7-0.1H0V0h7.5v0.2c0,0.1,0,0.1,0,0.2s0,0.4-0.3,0.4s-0.5,0-0.7,0.1
				C6.3,0.9,6.2,1,6,1.1c0,0-0.1,0-0.1,0.1s-0.1,0-0.1,0.1L5.6,1.4C5.4,1.6,5.3,1.9,5.3,2.2C5.2,2.5,5.2,2.8,5.2,3.1
				c0,0.1,0,0.1,0,0.2v0.1c0,0.2,0,0.5,0,0.9c0,0.8,0,2,0,2.2c0,0.1,0,0.3,0,0.4c0,0.3,0,0.6,0.1,0.9C5.4,8,5.4,8.3,5.5,8.5
				C5.6,8.8,5.7,9,5.9,9.1C6.2,9.5,6.6,9.7,7,9.8c0.1,0,0.3,0.1,0.4,0.1s0.2,0,0.3,0c0.2,0,0.4,0,0.5,0c0.7,0,1.4-0.1,2.1-0.3l0,0
				c0.1,0,0.1-0.1,0.2-0.1c0.1,0,0.3-0.1,0.4-0.2l0.4-0.2c0.2-0.2,0.4-0.4,0.6-0.6c0.1-0.2,0.3-0.4,0.4-0.6l0.2-0.3l0.4-1.3l0,0V6.2
				c0-0.1,0-0.1-0.1-0.2l0,0l0,0V5.9c-0.3-0.6-0.9-1-1.5-1c-0.1,0-0.3,0-0.4-0.1h-0.1l-0.1-0.6H18c0.1,0,0.1,0,0.2,0.1
				c0,0.1,0.1,0.1,0.1,0.2l0,0c0,0.1,0,0.1,0,0.1c0,0.2,0,0.3-0.3,0.3h-0.1L17.3,5l0,0h-0.1c-0.2,0.1-0.4,0.2-0.6,0.4
				c-0.1,0.1-0.2,0.2-0.3,0.4l0,0c-0.1,0.1-0.1,0.2-0.2,0.4c0,0.2,0,0.4-0.1,0.6c0,0.1-0.1,0.2-0.1,0.3c0,0.1,0,0.2-0.1,0.3v0.1v0.1
				L15.7,8v0.1l0,0c0,0.1,0,0.1-0.1,0.2c-0.1,0.1-0.1,0.3-0.2,0.4l-0.3,0.5L15,9.5c-0.1,0.2-0.3,0.4-0.5,0.6L14,10.5l0,0
				c0,0,0,0-0.1,0l0,0l0,0l0,0l0,0C13.5,10.7,13.5,10.7,13.4,10.7z M9.4,10.3h4c0.1,0,0.2-0.1,0.2-0.1l0,0h0.1h0.1l0,0l0.4-0.3
				c0.2-0.1,0.3-0.3,0.4-0.5l0.1-0.1L15,8.6c0.1-0.1,0.1-0.3,0.2-0.4c0-0.1,0-0.1,0.1-0.2l0,0l0,0l0,0l0.1-0.4V7.5V7.4
				c0-0.1,0-0.2,0.1-0.3c0-0.1,0-0.2,0.1-0.3c0-0.2,0.1-0.3,0.1-0.5s0.1-0.4,0.2-0.6c0.1-0.2,0.2-0.3,0.4-0.4
				c0.2-0.2,0.5-0.4,0.7-0.5c0,0,0,0,0.1,0s0.1,0,0.1,0l0,0l0.4-0.1h-6.1c0.7,0.1,1.3,0.5,1.6,1.1c0,0.1,0.1,0.1,0.1,0.2v0.1
				c0,0.1,0,0.2,0,0.2v0.2l-0.4,1.4l-0.2,0.3c-0.1,0.2-0.3,0.5-0.4,0.7c-0.2,0.3-0.4,0.5-0.7,0.7l0,0l-0.4,0.2
				C11,9.9,10.9,10,10.7,10l0,0l0,0c0,0-0.1,0-0.1,0.1l0,0C10.2,10.2,9.8,10.3,9.4,10.3L9.4,10.3z M1,10.3h6.6c-0.1,0-0.1,0-0.2,0
				l0,0c-0.2,0-0.3-0.1-0.4-0.1c-0.5-0.1-1-0.4-1.3-0.8C5.5,9.2,5.3,9,5.2,8.8C5.1,8.6,5,8.3,4.9,8c0-0.3-0.1-0.6-0.1-1
				c0-0.2,0-0.3,0-0.4c0-0.3,0-1.2,0-2.3c0-0.4,0-0.7,0-0.9c0-0.1,0-0.1,0-0.2V3.1c0-0.3,0-0.6,0.1-1c0.1-0.3,0.2-0.7,0.5-1l0.2-0.2
				l0.1-0.1c0,0,0.1,0,0.1-0.1l0,0C6,0.6,6.2,0.6,6.4,0.5c0.2-0.1,0.5-0.1,0.8-0.1l0,0H0.6c0.1,0,0.2,0,0.3,0.1C1.5,0.6,2,1,2.3,1.5
				l0.1,0.1l0.1,0.3c0,0.1,0,0.1,0,0.2C2.7,3.1,2.7,4,2.7,5c0,0.3,0,0.6,0,0.9c0,0.1,0,0.1,0,0.2v0.1c0,0.1,0,0.2,0,0.3
				c0,0.2,0,0.5,0,0.7c0,0.1,0,0.2,0,0.3l0,0c0,0.5-0.1,1.1-0.3,1.6c-0.2,0.4-0.6,0.8-1.1,1C1.2,10.2,1.1,10.3,1,10.3L1,10.3z"/>
		</g>
		<g transform="translate(3238.118 -198.504)">
			<path class="st0" d="M0.2,0.5l0.7,0.1c0.2,0,0.4,0.1,0.6,0.2c0,0,0.1,0,0.1,0.1C1.9,1,2.1,1.3,2.3,1.7v0.1v0.1c0,0.1,0,0.2,0,0.2
				c0,0.2,0.1,0.3,0.1,0.5V5c0,0.2,0,0.5-0.1,0.7c0,0.1,0,0.1-0.1,0.2c0,0.4-0.3,0.7-0.7,0.9c-0.1,0-0.1,0.1-0.2,0.1L0.9,7L0.2,7.1
				v0.3h7.1c0-0.5,0-0.3-0.5-0.4c0,0-0.1,0-0.2,0S6.4,7,6.4,6.9C5.9,6.7,5.5,6.3,5.2,5.8C5.1,5.6,5,5.3,5,5C4.9,4.4,5,3.6,5,3
				c0-0.1,0-0.2,0-0.3c0-0.6,0-1.3,0-1.9c0-0.1,0-0.2,0-0.3c0.1-0.1,0.1,0,0.3,0c0.3,0,1.3,0,1.6,0c0.4,0,0.8,0.1,1.2,0.1
				c0.1,0,0.2,0,0.3,0c0.2,0,0.4,0.1,0.6,0.2L9.3,1h0.1l0.3,0.1c0.6,0.3,1.2,0.8,1.7,1.3c0.1,0.1,0.2,0.2,0.3,0.4L12,3.4l0.5,0.8
				c0.2,0.3,0.3,0.6,0.4,0.9c0,0.1,0.1,0.1,0.1,0.2l0.2,1c0,0.1,0,0.2,0,0.3c0.1,0.5,0.1,1,0.1,1.5L13.2,9l-0.1,0.3
				c0,0.3-0.1,0.5-0.3,0.7l-0.4,0.3c-0.1,0.1-0.3,0.2-0.5,0.2c-0.1,0-0.2,0-0.3,0.1c-0.2,0-0.4,0.1-0.6,0.1c0,0.1-0.1,0.3,0,0.3h7
				c0.1,0,0.1-0.2,0.1-0.2c0-0.1-0.3-0.1-0.4-0.1l-0.4-0.1c-0.5-0.1-0.9-0.4-1.2-0.9c0,0-0.1-0.1-0.1-0.2l-0.1-0.3
				c-0.1-0.2,0-0.1,0-0.2V7.7c0-0.2-0.1-0.2-0.1-0.4c0-0.3-0.1-0.5-0.1-0.8c0-0.1,0-0.1,0-0.2l-0.1-0.6c0-0.1,0-0.1-0.1-0.2
				c-0.2-0.7-0.5-1.4-0.9-2.1c-0.1-0.1-0.1-0.2-0.2-0.3s0,0,0-0.1l-1.1-1.2l-0.1-0.1l-0.1-0.1c-0.2-0.2-0.4-0.3-0.7-0.4l-1.1-0.5
				c-0.1,0-0.1,0-0.2-0.1l-0.7-0.2c-0.1,0-0.2-0.1-0.4-0.1c-0.1,0-0.1,0-0.2,0C9.5,0.2,9.2,0.2,8.9,0.2H0.2V0.5z"/>
			<path class="st1" d="M18.2,11.1h-7c-0.1,0-0.2,0-0.2-0.1c-0.1-0.1-0.1-0.3,0-0.4v-0.2h0.1c0.2,0,0.4,0,0.6-0.1
				c0.1,0,0.2,0,0.2-0.1c0.1,0,0.3-0.1,0.4-0.2l0.3-0.3c0.1-0.1,0.2-0.3,0.3-0.5L13,9l0.1-0.9c0-0.5,0-1-0.1-1.5c0-0.1,0-0.1,0-0.1
				V6.4l-0.2-1V5.3c0,0,0-0.1-0.1-0.2c-0.1-0.3-0.2-0.6-0.4-0.9l-0.5-0.8L11.5,3l-0.1-0.1c-0.1-0.1-0.1-0.2-0.2-0.2
				c-0.5-0.5-1-1-1.6-1.3L9.3,1.2H9.2l0,0L8.8,1.1C8.6,1,8.4,0.9,8.2,0.9c-0.1,0-0.2,0-0.3,0C7.6,0.8,7.2,0.8,6.8,0.7H6.4
				c-0.4,0-1,0-1.2,0l0,0v0.1c0,0.2,0,0.4,0,0.6c0,0.4,0,0.9,0,1.3c0,0.1,0,0.2,0,0.3c0,0.2,0,0.3,0,0.5c0,0.5,0,0.9,0,1.4
				c0,0.3,0.1,0.6,0.2,0.8c0.2,0.4,0.6,0.8,1.1,1l0,0c0,0,0.1,0,0.2,0.1l0,0h0.1h0.1l0,0c0.1,0,0.2,0,0.3,0c0.1,0,0.2,0,0.2,0.1
				C7.5,7,7.5,7.1,7.5,7.4v0.2H0V7l0.9-0.1l0.4-0.1c0,0,0.1,0,0.1-0.1l0,0C1.8,6.5,2,6.2,2.1,5.8l0,0V5.7c0,0,0,0,0-0.1
				c0-0.2,0.1-0.4,0.1-0.7V2.6c0-0.1,0-0.3-0.1-0.4l0,0c0-0.1,0-0.1,0-0.2l0,0l0,0c0,0,0,0,0-0.1V1.8l0,0C2,1.4,1.8,1.2,1.5,1
				c0,0,0,0-0.1,0l0,0C1.3,0.9,1.1,0.8,0.9,0.7L0,0.6V0h8.9c0.3,0,0.6,0.1,0.9,0.1c0.1,0,0.1,0,0.2,0l0,0c0.1,0,0.3,0,0.4,0.1
				l0.7,0.2l0,0c0,0,0,0,0.1,0h0.1l0,0L12.4,1c0.3,0.1,0.5,0.3,0.7,0.5l0.1,0.1l0,0l0.1,0.1l1.2,1.2c0.1,0.1,0.1,0.2,0.2,0.3
				l0.1,0.1c0,0.1,0.1,0.1,0.1,0.2c0.4,0.7,0.7,1.4,1,2.1c0,0,0,0,0,0.1v0.1l0,0L16,6.4c0,0,0,0,0,0.1v0.1c0.1,0.3,0.1,0.5,0.1,0.8
				l0,0v0.1c0,0.1,0,0.2,0,0.2v1.2V9l0.1,0.3c0,0,0,0.1,0.1,0.1c0.3,0.4,0.6,0.7,1.1,0.8l0.4,0.1h0.1c0.2,0,0.5,0,0.5,0.3l0,0
				c0,0.1,0,0.2-0.1,0.3C18.3,11,18.2,11.1,18.2,11.1z M11.9,10.7h5.7l-0.3-0.1c-0.5-0.2-1-0.5-1.3-0.9c0-0.1-0.1-0.1-0.1-0.2l0,0
				l-0.1-0.3c-0.1-0.1-0.1-0.2,0-0.3V7.7V7.6c0-0.1,0-0.2,0-0.2c0-0.3-0.1-0.5-0.1-0.8l0,0V6.5V6.4l-0.1-0.5l0,0V5.8
				c-0.2-0.7-0.5-1.4-0.9-2c0-0.1-0.1-0.1-0.1-0.2l-0.1-0.1c-0.1-0.1-0.1-0.2-0.2-0.3L13.1,2c0,0,0,0-0.1-0.1h-0.1l-0.1-0.1
				c-0.2-0.2-0.4-0.3-0.7-0.4L11,0.9l0,0h-0.1l-0.7-0.2c-0.1,0-0.2-0.1-0.3-0.1s-0.2,0-0.2,0C9.4,0.4,9.2,0.4,8.9,0.4H7.3
				c0.3,0,0.5,0.1,0.8,0.1l0,0c0.1,0,0.1,0,0.2,0l0,0c0.2,0,0.4,0.1,0.7,0.2l0,0l0.4,0.1l0,0c0,0,0,0,0.1,0l0,0L9.7,1
				c0.7,0.3,1.3,0.8,1.8,1.4c0.1,0.1,0.2,0.2,0.2,0.3l0.1,0.1l0.4,0.6l0.5,0.8c0.2,0.3,0.3,0.6,0.4,1v0.1c0,0,0,0.1,0.1,0.2l0.2,1.1
				v0.1v0.1c0.1,0.5,0.1,1,0.1,1.5l0,0l-0.1,0.9l-0.1,0.3c-0.1,0.2-0.2,0.5-0.4,0.7l0,0l-0.4,0.3c-0.2,0.1-0.3,0.2-0.5,0.2
				L11.9,10.7z M1,7.2h5.7H6.6c0,0,0,0-0.1,0s-0.2,0-0.3-0.1c-0.6-0.2-1-0.6-1.3-1.2c0-0.3,0-0.6-0.1-0.9c0-0.5-0.1-1,0-1.5
				c0-0.2,0-0.3,0-0.5c0-0.1,0-0.2,0-0.2l0,0c0-0.4,0-0.9,0-1.3c0-0.2,0-0.4,0-0.6V0.8V0.7V0.5l0.1-0.1l0,0H1c0.2,0,0.4,0.1,0.6,0.2
				c0,0,0,0,0.1,0l0,0c0.3,0.3,0.6,0.6,0.8,1v0.1l0,0v0.1c0,0.1,0,0.2,0,0.3c0,0.2,0.1,0.3,0.1,0.5l0,0V5c0,0.3,0,0.5-0.1,0.8l0,0
				c0,0,0,0,0,0.1s0,0.1-0.1,0.2C2.3,6.4,2,6.7,1.6,7c0,0-0.1,0.1-0.2,0.1L1,7.2z"/>
		</g>
		<g transform="translate(3236 -202)">
			<path class="st0" d="M0.3,0.3h22.1v25.4H0.3V0.3z M0.2,25.8h22.3V0.2H0.2V25.8z"/>
			<path class="st1" d="M22.7,26H0V0h22.7V26z M0.5,25.5h21.7v-25H0.5V25.5z"/>
		</g>
	</g>
</g>
</svg>
