<?xml version="1.0" encoding="utf-8"?>
<!-- Generator: Adobe Illustrator 23.0.1, SVG Export Plug-In . SVG Version: 6.00 Build 0)  -->
<svg version="1.1" id="Layer_1" xmlns="http://www.w3.org/2000/svg" xmlns:xlink="http://www.w3.org/1999/xlink" x="0px" y="0px"
	 viewBox="0 0 398.4 101.6" style="enable-background:new 0 0 398.4 101.6;" xml:space="preserve">
<style type="text/css">
	.st0{fill-rule:evenodd;clip-rule:evenodd;fill:#FFFFFF;}
	.st1{fill:#FFFFFF;}
</style>
<g id="logo" transform="translate(0)">
	<g id="Group_249" transform="translate(109.779 16.76)">
		<g id="Group_6" transform="translate(188.295 1.227)">
			<g id="Group_5">
				<path id="Path_37" class="st0" d="M32.3,6.7h0.2c0.1,0.5,0.3,1,0.6,1.5c0.2,0.5,0.4,1,0.6,1.4c0.4,0.9,3.3,8,3.4,8.6H28
					c0.2-0.5,0.4-0.9,0.5-1.4c0.2-0.5,0.4-1,0.6-1.5c0.4-1,0.7-1.9,1.1-2.8l1.6-4.3C32,7.7,32.2,7.2,32.3,6.7L32.3,6.7z M-8.2,1.3
					c1,0,2,0.3,2.8,0.8l0.7,0.6C-4.6,2.8-4.4,3-4.2,3.2C-4.1,3.5-4,3.8-3.9,4c0.2,0.7,0.3,1.4,0.3,2.2V26c0,2.6-1.1,4.5-3.7,4.9
					c-0.9,0.2-1-0.3-1,0.6h36.7v-0.6c-1.9,0.1-3.5-1.4-3.6-3.2v-0.4c0.1-0.8,0.2-1.5,0.5-2.3c0.4-1.3,1-2.7,1.5-3.9l0.8-2h9.9
					c0.1,0.8,3.1,6.9,3.1,8.7c0,0.9-0.5,1.8-1.3,2.3c-0.9,0.5-1.9,0.7-2.9,0.7v0.6h14.8v-0.5c-0.8,0-1.6-0.2-2.4-0.5
					c-2-0.9-2.8-3.1-3.6-5L41,15.2c-0.3-0.7-0.6-1.3-0.9-2s-0.6-1.4-0.9-2L35,0.8h-1.5c-0.2,0.7-0.5,1.4-0.8,2l-0.8,2
					c-0.9,2.5-2.3,5.6-3.1,8L25.7,21c-1.1,2.8-2.5,7.2-5,9.1c-0.6,0.4-1.3,0.7-2.1,0.8l0.3-7.6c0-0.5,0.1-0.6,0.1-1l-0.7-0.1
					c-0.2,1.7-0.8,3.4-1.6,4.9c-0.1,0.2-0.3,0.4-0.5,0.7c-0.2,0.2-0.3,0.4-0.5,0.6c-0.4,0.4-0.8,0.7-1.2,1c-0.2,0.1-0.5,0.2-0.7,0.4
					c-2,1.2-6.6,1.5-9.1,0.5c-2.9-1.1-3.4-3.9-3.4-7.2V6.4c0-3.5,1.4-4.9,4.8-5.2V0.8H-8.2V1.3z"/>
				<path id="Path_38" class="st1" d="M52,32.2H35.7v-2.1h0.8c0.9,0,1.7-0.2,2.5-0.6c0.6-0.4,0.9-1,0.9-1.7c0-1-1.2-3.9-2-5.8
					c-0.5-1-0.7-1.7-0.9-2.1h-8.8l-0.6,1.5c-0.1,0.3-0.3,0.6-0.4,0.9c-0.4,1-0.8,2-1.2,3c-0.2,0.7-0.4,1.4-0.5,2.1v0.3
					c0.1,1.5,1.3,2.6,2.8,2.5l0.8-0.1v2.1H-9v-0.8c0-0.4,0.1-0.8,0.3-1.1c0.2-0.2,0.5-0.3,0.9-0.3h0.5c2.1-0.3,3.1-1.7,3.1-4.1V6.3
					c0-0.7-0.1-1.3-0.3-2c-0.2-0.2-0.2-0.4-0.4-0.6C-5,3.5-5.1,3.3-5.2,3.2l-0.6-0.5c-0.8-0.4-1.6-0.6-2.4-0.6H-9V0H7v1.9L6.3,2
					c-3,0.3-4,1.4-4,4.5V23c0,3.2,0.5,5.5,2.9,6.5c2.2,0.9,6.6,0.7,8.4-0.4c0.1-0.1,0.2-0.1,0.3-0.2c0.1-0.1,0.3-0.2,0.4-0.2
					c0.4-0.3,0.7-0.6,1.1-0.9c0.2-0.2,0.3-0.4,0.5-0.6l0.3-0.5l0.1-0.2c0.8-1.4,1.3-2.9,1.5-4.5v-0.9l2.2,0.4v0.7
					c0,0.3-0.1,0.5-0.1,0.6s-0.1,0.2-0.1,0.4l-0.2,6.6c0.3-0.1,0.6-0.3,0.9-0.5c1.9-1.4,3.1-4.7,4.1-7.3c0.2-0.5,0.4-1,0.6-1.4
					l3.1-8.1c0.5-1.2,1-2.6,1.6-4s1.1-2.8,1.6-4l0.8-2.1c0.3-0.6,0.5-1.3,0.7-1.9l0-0.4h2.5L40,10.9c0.3,0.6,0.5,1.2,0.9,2
					c0.2,0.6,0.5,1.1,0.7,1.6l0.2,0.4l4.5,10.7c0.7,1.7,1.5,3.4,3,4.1c0.7,0.3,1.4,0.4,2.2,0.4l0.7,0.1L52,32.2L52,32.2z M40,30.7
					h7.8c-1.6-1.1-2.3-2.8-3-4.5l-0.2-0.5L40.1,15c-0.2-0.6-0.5-1.1-0.7-1.6c-0.2-0.7-0.5-1.3-0.9-2l-4-9.9h-0.4
					c-0.2,0.5-0.4,1.1-0.6,1.6l-0.8,2c-0.1,0.3-0.2,0.5-0.3,0.8H33l0.2,0.6c0.2,0.5,0.3,0.9,0.5,1.4c0.2,0.4,0.3,0.7,0.4,1l0.2,0.5
					c0.1,0.3,0.4,1,0.8,2c1.7,4.1,2.6,6.3,2.7,6.7l0.1,0.4h0.4l0.1,0.7c0.1,0.3,0.6,1.4,1,2.4c1.2,2.9,2.2,5.2,2.2,6.4
					C41.4,29,40.9,30,40,30.7L40,30.7z M21.3,30.7h4.3c-0.9-0.7-1.4-1.8-1.5-3V27C23.5,28.4,22.5,29.7,21.3,30.7L21.3,30.7z
					 M13.8,30.7H18l0.2-4.7c-0.2,0.5-0.4,1-0.7,1.4l-0.1,0.2c-0.2,0.2-0.3,0.4-0.4,0.6c-0.2,0.2-0.3,0.5-0.6,0.7
					c-0.4,0.4-0.8,0.8-1.3,1.1l-0.5,0.3c-0.1,0.1-0.2,0.1-0.2,0.1C14.2,30.4,14,30.6,13.8,30.7L13.8,30.7z M-4.8,30.7h8.9
					C1.2,29.2,0.7,26,0.7,23V6.4c0-2.4,0.6-3.9,2-4.9h-7.5L-4.2,2C-4,2.2-3.7,2.5-3.6,2.8c0.2,0.3,0.4,0.7,0.5,1
					c0.2,0.8,0.3,1.6,0.4,2.4V26C-2.6,27.8-3.4,29.5-4.8,30.7L-4.8,30.7z M29.1,17.4h6.8c-0.6-1.4-1.6-3.9-2.3-5.5
					c-0.4-1-0.7-1.7-0.8-2l-0.2-0.5c-0.1-0.3-0.2-0.5-0.3-0.7l-1.6,4c-0.2,0.5-0.4,1-0.6,1.5c-0.1,0.4-0.3,0.9-0.5,1.3
					c-0.2,0.5-0.4,0.9-0.6,1.4C29.2,17.1,29.2,17.2,29.1,17.4L29.1,17.4z"/>
			</g>
		</g>
		<g id="Group_8" transform="translate(237.822 1.43)">
			<g id="Group_7">
				<path id="Path_39" class="st0" d="M-8.4,1.2C-8,1.3-7.6,1.4-7.1,1.4C-6,1.5-5.1,2.1-4.4,3C-3.5,4.4,0,13,0.8,15l6.5,15.6
					c0.2,0.5,0,0.5,1.1,0.5c0.3,0,0.5-0.8,0.6-1.4l1.5-4.5c0.7-2,1.3-3.9,2-5.9l3.7-11.1c0.1-0.3,0.1-0.6,0.3-0.7L17,9
					c0.7,1.9,1.7,4.8,2.2,6.6c0.1,0.3,0.2,0.5,0.3,0.8l4.7,14c0.1,0.3,0.2,0.5,0.3,0.8h1c0.1-0.4,2.2-5.4,2.4-6l7.5-18.1
					c0.7-1.5,2.1-4.4,3.4-5.1c0.7-0.3,1.5-0.5,2.3-0.6V0.8H30.7v0.5c1.4,0,2.8,0.3,3.4,1.7c0.9,1.9-0.5,5.5-1.2,7l-6.1,14.8
					c-0.1-0.4-0.3-0.8-0.4-1.2l-1.2-3.8c-1.4-4-2.6-8.6-3.9-12.5C20.7,5.5,20.1,3.4,22,2c1-0.5,2.1-0.8,3.2-0.7V0.8H11v0.5
					c1.8,0,3.3,0.6,4,2.3c0.8,1.9,0.5,3.2-0.1,5.1c-0.1,0.4-0.3,0.8-0.4,1.2l-4.5,14c-0.1,0.3-0.1,0.4-0.3,0.5L2.4,6.5
					C1.8,5.1,0.8,2.7,2.8,1.6c0.9-0.3,1.9-0.4,2.8-0.4V0.8h-14C-8.4,0.8-8.4,1.2-8.4,1.2z"/>
				<path id="Path_40" class="st1" d="M26.1,31.8h-2.2l-0.2-0.5c-0.1-0.2-0.1-0.4-0.2-0.6l-0.1-0.3l-4.7-14
					c-0.1-0.2-0.2-0.5-0.3-0.8c-0.4-1.2-1-3-1.5-4.6c-0.2-0.5-0.3-0.9-0.5-1.3l-3.3,9.8c-0.7,1.9-1.4,3.8-2,5.9L9.8,30
					c-0.1,0.1-0.1,0.3-0.1,0.4c-0.2,0.7-0.5,1.5-1.2,1.5H8.1c-0.6,0-1.1,0-1.4-0.8c0-0.1-0.1-0.1-0.1-0.2L0.2,15.3
					C0,15-0.2,14.4-0.4,13.8c-1.2-3-3.7-9.2-4.5-10.4c-0.5-0.7-1.3-1.2-2.2-1.3C-7.5,2.1-7.9,2-8.4,2L-9,1.9V0H6.4v2H5.6
					C4.8,2,3.9,2.1,3.1,2.3C1.9,3,2.2,4.3,3,6.2l6.6,16.1l4.3-13C14,9,14.1,8.6,14.2,8.4l0.1-0.1c0.5-1.7,0.7-2.8,0.1-4.5
					C13.9,2.6,12.8,2,11,2h-0.8V0H26v2h-0.8c-1-0.1-1.9,0.1-2.8,0.5c-1.3,1-1.1,2.3-0.4,4.5c0.7,2,1.4,4.2,2,6.4
					c0.6,2.1,1.3,4.2,1.9,6.2l0.9,3l5.3-12.9c1-2.2,1.8-5,1.2-6.4C33,2.4,32.2,2,30.7,2H30V0h11.9v1.8L41.2,2
					c-0.3,0.1-0.6,0.1-0.8,0.2c-0.4,0.1-0.9,0.2-1.3,0.4c-0.9,0.4-2,2.2-3.1,4.7l-7.5,18.1c-0.1,0.2-0.3,0.6-0.5,1.2
					c-0.5,1.3-1.8,4.2-1.9,4.7L26.1,31.8z M-4.9,1.5c0.4,0.3,0.8,0.7,1.1,1.1C-3,3.7-1.1,8.3,0.9,13.2c0.3,0.6,0.5,1.1,0.6,1.5
					L8,30.3l0,0c0.1-0.1,0.1-0.3,0.1-0.4s0.1-0.3,0.2-0.4l1.4-4.1l-0.3,0.2L1.7,6.8C1.2,5.6,0.1,3.1,1.6,1.5H-4.9L-4.9,1.5z M17,6.3
					l0.8,2.5c0.2,0.6,0.4,1.2,0.7,1.9c0.6,1.6,1.2,3.4,1.6,4.7c0.1,0.3,0.2,0.5,0.3,0.7l4.7,14c0,0,0,0.1,0.1,0.1
					c0.3-0.6,0.7-1.8,1.6-3.9l-0.3-1.4c0-0.2-0.1-0.4-0.2-0.7c-0.1-0.2-0.1-0.4-0.2-0.5L24.8,20c-0.7-2-1.3-4.1-1.9-6.2
					c-0.7-2.1-1.3-4.4-2-6.3c-0.5-1.6-1.4-4.1,0.6-5.9h-7c0.6,0.5,1,1.1,1.3,1.8c0.5,1.1,0.6,2.4,0.5,3.6L17,6.3z M34.1,1.5
					c0.3,0.3,0.6,0.7,0.8,1.1c0.4,1,0.5,2,0.3,3c0.6-1.5,1.6-2.9,2.8-4.1H34.1z"/>
			</g>
		</g>
		<g id="Group_10" transform="translate(0 0.72)">
			<g id="Group_9">
				<path id="Path_41" class="st0" d="M16.1,30.6c-1.5,0.1-3-0.4-4.2-1.4c-0.2-0.2-0.5-0.5-0.7-0.8c-0.6-1.1-0.8-2.3-0.8-3.5V1.5
					c2.7,0,6.1-0.1,8.2,0.8c1.6,0.6,3,1.5,4.2,2.7c0.6,0.5,1.1,1.2,1.6,1.8c0.5,0.7,0.9,1.4,1.3,2.2c0.8,1.7,1.3,3.5,1.6,5.4
					c0.5,3.7-0.2,7.4-1.9,10.7l-2.7,3.3C20.9,29.9,18.5,30.7,16.1,30.6L16.1,30.6z M0.8,1.1c0,0.3,0.6,0.3,0.9,0.3
					c0.4,0,0.7,0.1,1.1,0.3c0.6,0.1,1.1,0.5,1.5,0.9C4.7,3,5,3.5,5.2,4.1c0.2,0.7,0.3,1.5,0.3,2.2v19.2c0,3.3-1.4,4.8-4.2,5
					c-0.5,0.1-0.4,0-0.4,0.6h17.7c2,0,4.1-0.3,6-0.9c0.8-0.2,1.6-0.6,2.3-1.1c2.1-1.3,3.8-3.3,4.7-5.6c1.4-3.4,1.6-7,0.8-10.6
					c-0.5-2-1.3-3.8-2.4-5.5c-0.4-0.6-0.8-1.1-1.3-1.7c-0.3-0.4-0.6-0.7-1-1c-0.2-0.2-0.3-0.3-0.5-0.5c-0.3-0.3-0.7-0.6-1.1-0.9
					c-2.7-1.8-5.9-2.7-9.1-2.7H0.8V1.1z"/>
				<path id="Path_42" class="st1" d="M0.8,31.9H0V31c0-0.6,0.1-1.1,1-1.2h0.1c2.5-0.2,3.6-1.4,3.6-4.2V6.4c0-0.7-0.1-1.4-0.3-2
					C4.3,3.9,4,3.5,3.7,3.2L3.6,3.1C3.3,2.8,3,2.6,2.5,2.4l0,0C2.2,2.3,1.9,2.3,1.6,2.2H1.4C0.3,2.2,0,1.7,0,1.2V0h17
					c3.4-0.1,6.7,0.9,9.5,2.8c0.4,0.3,0.8,0.6,1.2,0.9C27.9,3.8,28,3.9,28.1,4l0.2,0.2c0.4,0.3,0.7,0.7,1.1,1.1
					c0.5,0.5,0.9,1.1,1.3,1.7c1.1,1.8,2,3.7,2.5,5.7c0.9,3.7,0.6,7.5-0.9,11c-1,2.5-2.8,4.6-5.1,6c-0.8,0.5-1.6,0.8-2.5,1.1
					c-2,0.6-4.1,0.9-6.2,0.9L0.8,31.9L0.8,31.9z M4.3,30.4h7.9c-0.3-0.2-0.5-0.3-0.8-0.6c-0.3-0.3-0.6-0.6-0.8-1l-0.1-0.1
					c-0.7-1.2-1-2.5-0.9-3.8V1.6H4.2c0.2,0.1,0.4,0.3,0.6,0.5C5.3,2.6,5.7,3.3,5.9,4c0.2,0.8,0.3,1.6,0.3,2.4v19.2
					C6.2,27.8,5.6,29.4,4.3,30.4L4.3,30.4z M18.9,1.6L18.9,1.6c1.7,0.6,3.2,1.6,4.5,2.9C24,5.1,24.6,5.7,25,6.4
					c0.5,0.7,1,1.5,1.4,2.3c0.8,1.8,1.4,3.7,1.6,5.7c0.5,3.8-0.1,7.7-2,11.1v0.1L23.2,29c-0.4,0.4-0.9,0.7-1.5,1
					c0.9-0.2,1.7-0.4,2.6-0.6c0.8-0.2,1.5-0.6,2.2-1c2-1.2,3.5-3.1,4.4-5.3c1.3-3.2,1.6-6.7,0.8-10.1c-0.4-1.9-1.2-3.7-2.2-5.3
					c-0.4-0.6-0.8-1.1-1.2-1.6c-0.3-0.4-0.6-0.7-0.9-1c-0.1-0.1-0.2-0.2-0.3-0.3C27,5,26.9,5,26.8,5l-0.1-0.1
					c-0.4-0.3-0.7-0.6-1.1-0.8C23.7,2.7,21.3,1.8,18.9,1.6L18.9,1.6z M11.9,28c0.1,0.2,0.3,0.5,0.5,0.7c1.1,0.8,2.4,1.2,3.7,1.1h0.2
					c2.1,0.1,4.2-0.6,5.9-1.9l2.6-3.2c1.7-3.1,2.3-6.7,1.8-10.2c-0.2-1.8-0.8-3.6-1.5-5.2c-0.4-0.7-0.8-1.4-1.2-2.1
					C23.5,6.6,23,6,22.4,5.5c-1.1-1.1-2.4-2-3.9-2.5c-1.9-0.8-4.8-0.8-7.2-0.8v22.7C11.1,26,11.4,27.1,11.9,28z"/>
			</g>
		</g>
		<g id="Group_12" transform="translate(100.421 0.722)">
			<g id="Group_11">
				<path id="Path_43" class="st0" d="M0.8,1.4c4.3,0,4.7,2.9,4.7,6.6v15.9c0,3.4-0.3,6.4-4.1,6.6c-0.6,0.1-0.6-0.1-0.6,0.6H11
					c0-0.9,0-0.4-1.5-0.7c-1.4-0.3-2.6-1.4-2.9-2.8c-0.5-1.8-0.3-5.2-0.3-7.4V4.9c1,1.1,2,2.5,2.9,3.6l4.9,6.2
					c0.5,0.6,0.9,1.1,1.3,1.6l6.6,8.2c0.5,0.6,0.9,1.1,1.3,1.6l1.7,2.1c0.1,0.2,0.2,0.3,0.3,0.4c0.3,0.3,1.7,2.4,2.1,2.4h1V6.6
					c0-2.9,0.9-4.8,3.7-5.2c0.9-0.1,1,0.3,1-0.6H22.7c0,0.8-0.1,0.4,1.3,0.7c1.3,0.2,2.4,1,2.9,2.2c0.6,1.4,0.5,4.4,0.5,6.4v13.6
					c-1.2-1.4-3.3-4.2-4.5-5.7c-1.8-2.3-3.8-5-5.7-7.2L9.7,1.1C9.6,1,9.5,0.8,9.3,0.8H0.8V1.4z"/>
				<path id="Path_44" class="st1" d="M29.1,31.9h-1.7c-0.5,0-0.9-0.3-2.4-2.4c-0.1-0.1-0.1-0.2-0.2-0.3c-0.1-0.1-0.3-0.3-0.4-0.5
					L22.3,26c-0.3-0.4-0.5-0.7-0.8-1l-6.6-8.2c-0.3-0.3-0.5-0.6-0.7-0.9c-0.2-0.2-0.4-0.5-0.6-0.7L8.7,9C8.3,8.5,7.8,7.9,7.4,7.4
					C7.3,7.3,7.2,7.1,7.1,7v14.6c-0.1,1.9,0,3.8,0.3,5.7c0.3,1.1,1.1,2,2.3,2.3c0.5,0.1,0.8,0.1,1,0.2c1.1,0,1.1,0.8,1.1,1.3v0.8H0
					v-0.8c0-0.5,0-1.3,1.1-1.3h0.2c2.9-0.2,3.4-2.1,3.4-5.9V8c0-4.1-0.6-5.9-3.9-5.9H0V0h9.2c0.4,0,0.8,0.2,1,0.6l0.1,0.1l7.6,9.7
					c1,1.2,2,2.5,3,3.8c0.9,1.2,1.8,2.3,2.6,3.3c0.5,0.6,1,1.3,1.6,2c0.5,0.7,1.1,1.4,1.6,2.1V9c0-1.8,0.1-3.9-0.4-5
					C25.9,3,25,2.4,24,2.2c-0.4-0.1-0.7-0.1-0.9-0.1C22.3,2,22,1.7,22,0.9V0h11.9v0.8c0,0.4-0.1,0.8-0.3,1.1
					c-0.2,0.2-0.5,0.3-0.9,0.3h-0.5c-2.1,0.3-3,1.6-3,4.5L29.1,31.9L29.1,31.9z M4.2,30.4h3.3c-0.8-0.6-1.4-1.6-1.7-2.6
					c0-0.1,0-0.1-0.1-0.1C5.6,28.7,5.1,29.7,4.2,30.4L4.2,30.4z M5.6,2.9l1.3,1.5C7.5,5,8,5.8,8.6,6.5C9,7,9.5,7.6,9.9,8l4.9,6.2
					c0.2,0.3,0.4,0.5,0.6,0.7c0.3,0.3,0.5,0.6,0.7,0.9l6.6,8.2c0.3,0.4,0.6,0.7,0.8,1l2.1,2.7c0.1,0.1,0.2,0.2,0.3,0.3l0.1,0.1
					c0.1,0.1,0.2,0.2,0.3,0.4c0.7,0.9,1.2,1.5,1.4,1.8V25l-0.9-1c-0.8-0.9-2-2.4-3-3.7c-0.6-0.8-1.1-1.5-1.6-2
					c-0.9-1.1-1.8-2.2-2.6-3.4c-1-1.3-2-2.6-3-3.8L8.9,1.5l0,0H4.1C4.7,2,5.2,2.6,5.5,3.4L5.6,2.9L5.6,2.9z M26.2,1.6
					c0.6,0.5,1.1,1.1,1.5,1.8C27.8,3.7,27.9,4,28,4.3c0.2-1.1,0.8-2,1.7-2.7L26.2,1.6L26.2,1.6z"/>
			</g>
		</g>
		<g id="Group_14" transform="translate(32.985 0.772)">
			<g id="Group_13">
				<path id="Path_45" class="st0" d="M0.8,1.1c0,0.3,0.2,0.2,0.4,0.3c3.3,0.2,4.3,2,4.3,5.5V25c0,2.4-0.3,3.6-1.7,4.8
					c-0.6,0.4-1.3,0.7-2,0.8c-1.1,0.2-1.1-0.2-1.1,0.6h26.6l0.2-4.5c0-0.5,0.1-0.6,0.1-1v-1.2l0.1-2.2h-0.6
					c-0.6,2.6-1.4,5.3-3.7,6.8c-2.4,1.6-7.6,1.8-10,0.6c-0.9-0.4-1.6-1.1-2.1-1.9c-0.3-0.4-0.4-0.9-0.6-1.4
					c-0.6-2.1-0.4-8.7-0.4-10.8c3.1,0,5.7,0,6.8,3.4c0.3,0.8,0.4,1.7,0.5,2.6h0.5c0-1.3,0.1-2.4,0.1-3.7V9.5h-0.6
					c-0.1,0.8-0.2,1.5-0.4,2.2c-0.9,3.3-4.1,3.1-7.1,3.1V1.5c2.4,0,7.4-0.3,9.5,0.5c1.7,0.5,3.1,1.8,3.9,3.4
					c0.4,0.9,0.7,1.9,0.8,2.8h0.6C25.1,7.4,25,7,25,6.3l-0.2-3.6v-1c0-0.5-0.1-0.6-0.1-1H0.8V1.1z"/>
				<path id="Path_46" class="st1" d="M28.2,31.8H0.1V31c0-0.5,0-1.2,1.1-1.3c0.2,0,0.4,0,0.6-0.1h0.1c0.6,0,1.1-0.3,1.6-0.6
					c1.1-0.9,1.4-1.7,1.4-4.2v-18C4.9,3.4,4,2.2,1.3,2H1.1C0.1,2,0,1.4,0,1.1V0h25.5v0.8c0,0.1,0,0.2,0.1,0.3c0,0.2,0.1,0.4,0.1,0.7
					v0.9l0.2,3.6c0,0.3,0,0.6,0.1,1c0,0.3,0.1,0.6,0.1,1V9h-2L24,8.3c-0.2-0.9-0.4-1.8-0.8-2.6c-0.7-1.4-1.9-2.5-3.4-3
					c-1.6-0.5-5.3-0.5-7.7-0.5h-0.8V14c3.1,0,5-0.2,5.6-2.5c0.2-0.7,0.3-1.4,0.4-2.1l0.1-0.7h2v9c0,0.7,0,1.3-0.1,1.9
					c0,0.6-0.1,1.2-0.1,1.8v0.8h-2l-0.1-0.7c0-0.8-0.2-1.6-0.5-2.4c-0.8-2.5-2.5-2.8-5.4-2.8v0.5c0,2.7-0.1,7.7,0.4,9.4
					c0.1,0.4,0.3,0.8,0.5,1.2c0.4,0.7,1,1.3,1.8,1.6c2,1,6.9,0.9,9.3-0.6c2.1-1.4,2.8-3.9,3.4-6.3l0.2-0.6h2l-0.1,3v1.2
					c0,0.2-0.1,0.4-0.1,0.5s-0.1,0.3-0.1,0.5L28.2,31.8z M22.6,30.3h4.1l0.2-3.7c0-0.3,0.1-0.5,0.1-0.7v-0.1c-0.6,1.6-1.6,2.9-3,3.8
					C23.5,29.9,23.1,30.1,22.6,30.3z M4.3,30.3h8.8c-1-0.5-1.8-1.2-2.4-2.2c-0.3-0.5-0.5-1-0.7-1.6c-0.5-1.7-0.5-6-0.5-9.8v-1.2h0.1
					v-14H4.4C6,2.8,6.3,4.9,6.3,6.9V25C6.3,27.5,6,28.9,4.3,30.3L4.3,30.3z M14.9,15.2c1.2,0.4,2.2,1.3,2.7,2.5v-4.5
					C17,14.3,16,15,14.9,15.2L14.9,15.2z M20.9,1.5c1.4,0.7,2.6,1.7,3.3,3l-0.1-1.8V1.5H20.9z"/>
			</g>
		</g>
		<g id="Group_16" transform="translate(64.805 0.772)">
			<g id="Group_15">
				<path id="Path_47" class="st0" d="M0.9,1.1c0,0.4,1,0.2,2.1,0.6C5.3,2.5,5.6,4.8,5.6,7v18c0,2.9-0.6,5.1-3.6,5.6
					c-1.1,0.2-1.1-0.2-1.1,0.6h10.3v-0.6c-4.4,0-4.7-3.2-4.7-6.6V5C7,5.5,7.4,6,7.8,6.6C8.2,7,8.6,7.5,9.1,8.1l1.3,1.6
					c0.5,0.6,0.9,1.1,1.3,1.7l15.1,18.9c0.7,0.9,0.3,0.8,1.7,0.8V7c0-2.2,0.3-4.6,2.5-5.4c1.9-0.7,2.1,0.2,2.1-0.9H22.9
					c0,0.8-0.1,0.4,1.3,0.7c3.9,0.7,3.3,5.1,3.3,8.6v13.6c-0.3-0.2-2.4-3-2.8-3.5c-3.5-4.4-7.1-9.3-10.7-13.6
					c-0.4-0.5-0.7-0.9-1.1-1.4L9.8,1.2C9.6,1,9.6,1.1,9.5,0.8H0.8L0.9,1.1L0.9,1.1z"/>
				<path id="Path_48" class="st1" d="M27.9,31.8c-0.5,0.1-1.1-0.2-1.4-0.7c-0.1-0.1-0.2-0.3-0.3-0.4L11.1,11.8
					c-0.5-0.6-0.9-1.1-1.3-1.7L8.5,8.5c-0.3-0.3-0.6-0.7-0.9-1C7.5,7.3,7.3,7.1,7.2,6.9v16.9c0,4.1,0.6,5.9,3.9,5.9h0.8v2.1H0.1V31
					c0-0.5,0-1.2,1.1-1.3c0.2,0,0.4,0,0.6-0.1c2.2-0.4,3-1.6,3-4.8v-18c0-2.7-0.6-4-2.1-4.6C2.2,2.1,1.8,2.1,1.4,2.1C1,2,0,2,0,1.1
					V0h10l0.2,0.6c0.1,0.1,0.1,0.1,0.2,0.2l3.1,3.9L14,5.3c0.2,0.3,0.4,0.5,0.6,0.8c1.8,2.2,3.6,4.6,5.4,6.9
					c1.7,2.2,3.5,4.6,5.3,6.7c0.1,0.2,0.4,0.5,0.7,0.8c0.3,0.4,0.6,0.7,0.9,1.1V8.9c0.1-3.7-0.1-6.2-2.7-6.7
					c-0.4-0.1-0.7-0.1-0.8-0.1C22.1,2,22,1.4,22,0.9V0h11.8v0.8c0,0.4-0.1,0.8-0.3,1.1c-0.2,0.2-0.6,0.3-0.9,0.3
					c-0.5,0-1,0.1-1.4,0.3c-1.4,0.5-2,1.9-2,4.7V32L27.9,31.8L27.9,31.8z M4.4,30.3h3.3c-0.9-0.7-1.4-1.7-1.7-2.7
					C5.8,28.7,5.2,29.6,4.4,30.3z M5.7,3L7,4.3C7.5,4.9,8,5.5,8.4,6c0.2,0.2,0.3,0.4,0.5,0.6c0.3,0.4,0.5,0.7,0.8,1L11,9.2
					c0.5,0.6,0.9,1.1,1.3,1.7l15.1,18.9c0.1,0.1,0.2,0.3,0.3,0.4v-5.6l-0.6-0.4c-0.9-0.9-1.7-1.9-2.4-2.9c-0.2-0.3-0.4-0.5-0.6-0.8
					c-1.8-2.2-3.5-4.5-5.3-6.8S15.2,9,13.4,6.8C13.2,6.6,13,6.3,12.8,6l-0.5-0.6l-3-3.9L9.2,1.4H9.1H4.3c0.6,0.5,1.1,1.1,1.4,1.8
					L5.7,3L5.7,3z M26.4,1.5c0.8,0.7,1.4,1.7,1.7,2.7c0.2-1.1,0.8-2.1,1.7-2.7C29.8,1.5,26.4,1.5,26.4,1.5z"/>
			</g>
		</g>
		<g id="Group_18" transform="translate(156.12)">
			<g id="Group_17">
				<path id="Path_49" class="st0" d="M1.9,9.1c-0.1,2.2,0.7,4.3,2.2,5.8c1.2,1,2.5,1.8,3.8,2.5c1,0.5,2,1,3,1.6
					c2.2,1.3,3.5,2.1,4.3,4.8c1.7,5.8-3.8,10.2-9,7.1c-0.9-0.6-1.7-1.3-2.3-2.2c-1.3-1.9-2.2-3.9-2.6-6.1H0.8c0,1.1-0.1,2-0.1,3.1
					v6.1c1,0,0.5-0.2,0.9-0.7c0.8-0.8,2.2-0.2,3,0.3c0.5,0.2,1.1,0.4,1.7,0.6c2.7,0.9,5.7,0.9,8.3-0.1c0.8-0.3,1.6-0.7,2.3-1.3
					l0.8-0.7c2.6-2.6,3.4-6.5,2-9.9c-0.4-1-1-1.9-1.7-2.7c-1.8-1.9-4.8-3.1-7-4.3c-0.9-0.4-1.8-0.9-2.6-1.4c-2.3-1.5-3.7-4-2.6-7
					c0.7-1.8,2.4-3,4.4-3.1c1.3-0.1,2.7,0.2,3.8,1c1.1,0.9,2,2,2.6,3.3c0.5,0.9,0.8,1.9,1.1,2.9C17.8,9,17.9,9.2,18,9.5
					c0.1,0.1,0.1,0.2,0.1,0.4c0.1,0.4,0,0.3,0.7,0.3c0-3-0.2-5.9-0.2-8.9c-1,0-0.4,0.1-0.9,0.7c-1.2,1.8-5.3-3.2-10.8-0.6
					c-1,0.5-1.8,1.1-2.6,1.8C2.8,4.8,1.9,6.9,1.9,9.1L1.9,9.1z"/>
				<path id="Path_50" class="st1" d="M10.3,33.4c-1.4,0-2.9-0.2-4.2-0.7c-0.6-0.2-1.2-0.4-1.7-0.7c-0.6-0.3-1.7-0.8-2.1-0.4
					c-0.1,0.1-0.1,0.1-0.1,0.1c-0.3,0.8-0.9,0.8-1.4,0.8H0v-6.8c0-0.5,0-1,0.1-1.6c0-0.5,0.1-1,0.1-1.5v-0.8H2l0.2,0.6
					c0.5,2.1,1.3,4,2.5,5.8c0.5,0.8,1.3,1.5,2.1,2c1.9,1.2,4.3,1.2,6.1-0.2c1.8-1.5,2.5-3.9,1.7-6.1c-0.7-2.4-1.8-3-3.9-4.3
					l-0.1-0.1c-0.6-0.4-1.2-0.7-1.8-1L7.6,18c-0.3-0.2-0.6-0.3-0.9-0.5c-1.2-0.6-2.2-1.3-3.2-2.1C1.8,13.8,0.9,11.5,1,9.1l0,0
					c0-2.4,1-4.7,2.7-6.4C4.5,2,5.4,1.3,6.4,0.9C10-0.8,13,0.4,15,1.2c0.8,0.4,1.8,0.7,1.9,0.5S17,1.5,17,1.4
					c0.2-0.8,0.8-0.8,1.4-0.8h0.8v0.8c0,1.5,0.1,2.9,0.1,4.4c0.1,1.5,0.1,3,0.1,4.5V11h-1c-0.4,0-1,0-1.2-0.7v-0.1L17.1,10
					c0-0.1,0-0.2-0.1-0.3c-0.1-0.3-0.1-0.4-0.2-0.6V9c-0.3-1-0.6-1.9-1-2.8c-0.5-1.2-1.3-2.2-2.4-3c-1-0.7-2.2-1-3.3-0.9
					C8.5,2.4,7,3.4,6.5,4.9C5.2,8.2,7.6,10.2,8.7,11c0.8,0.5,1.6,1,2.5,1.3c0.4,0.2,0.9,0.4,1.3,0.6c2.1,1,4.5,2.2,6,3.8
					c3.6,3.9,3.5,9.9-0.3,13.7l-0.8,0.8c-0.8,0.6-1.6,1-2.5,1.4C13.4,33.1,11.9,33.4,10.3,33.4z M2.6,9.1L2.6,9.1
					c-0.1,2,0.6,3.9,2,5.2c0.8,0.8,1.8,1.4,2.8,1.9c0.3,0.1,0.6,0.3,0.9,0.5c0.4,0.2,0.8,0.4,1.2,0.6c0.6,0.3,1.2,0.6,1.9,1l0.1,0.1
					c2.2,1.4,3.7,2.2,4.6,5.2c1,2.8,0.1,5.9-2.2,7.7c-0.1,0.1-0.2,0.2-0.3,0.2c0.3-0.1,0.6-0.2,0.9-0.3c0.7-0.3,1.4-0.7,2-1.2
					l0.7-0.7c2.4-2.4,3.1-6,1.8-9.1c-0.4-0.9-0.9-1.8-1.6-2.5c-1.6-1.5-3.5-2.7-5.6-3.5c-0.5-0.2-0.9-0.4-1.3-0.6
					c-0.9-0.4-1.8-0.9-2.6-1.4c-3-2-4-4.9-2.9-7.9c0.2-0.5,0.5-1,0.8-1.4c-0.3,0.3-0.7,0.5-1,0.9C3.5,5.2,2.7,7.1,2.6,9.1L2.6,9.1z
					 M2.6,30c0.7,0,1.3,0.2,1.9,0.5c-0.4-0.4-0.8-0.9-1.2-1.3c-0.8-1.1-1.5-2.3-1.9-3.6v4.8C1.8,30.1,2.2,30,2.6,30L2.6,30z
					 M15.4,2.9c0.7,0.8,1.3,1.7,1.7,2.6l0.6,1.4c0-0.4,0-0.7-0.1-1.1c0-0.9-0.1-1.8-0.1-2.8C16.9,3.3,16.1,3.3,15.4,2.9z"/>
			</g>
		</g>
		<g id="Group_20" transform="translate(136.845 0.823)">
			<g id="Group_19">
				<path id="Path_51" class="st0" d="M0.8,1c0,0.6,2-0.4,3.7,1.8c1,1.2,1,3,1,4.6v17c0,1.8-0.1,3.5-0.9,4.6c-0.8,1-2,1.6-3.3,1.6
					c-0.5,0.1-0.5-0.1-0.5,0.6h14.3c0-0.6,0-0.5-0.4-0.6c-3.4-0.3-4.3-2.2-4.3-5.9V7.3c0-2,0.2-3.7,1.3-4.8c0.3-0.4,0.8-0.6,1.2-0.8
					c0.3-0.1,0.7-0.2,1.1-0.3c0.2,0,0.4-0.1,0.7-0.1c0.4,0,0.3,0.1,0.3-0.5H0.8V1L0.8,1z"/>
				<path id="Path_52" class="st1" d="M15.8,31.8H0.1v-0.9c0-0.4,0-1.2,1-1.2h0.2c1,0,2-0.5,2.7-1.3s0.8-2.4,0.8-4v-17
					c0-1.3,0-3.1-0.8-4.1C3.3,2.5,2.4,2,1.4,2.1C1,2,0,2,0,1.1V0h15.8v0.9c0,0.4,0,1.2-1,1.2h-0.2c-0.1,0-0.2,0-0.4,0.1
					c-0.1,0-0.2,0-0.3,0.1c-0.3,0-0.6,0.1-0.9,0.3c-0.4,0.1-0.7,0.4-1,0.7c-0.9,0.9-1.1,2.3-1.1,4.3V25c0,3.7,0.9,4.9,3.6,5.1h0.2
					c1,0.1,1,0.8,1,1.2L15.8,31.8z M4.3,30.3h7.4c-1.6-1.1-2-3.1-2-5.7V7.2c0-1.9,0.1-4,1.5-5.4c0.2-0.2,0.3-0.3,0.5-0.5H4.3
					c0.3,0.2,0.6,0.5,0.9,0.8c1.2,1.4,1.2,3.5,1.2,5.1v17c0,1.8-0.1,3.8-1.1,5C4.9,29.6,4.6,30,4.3,30.3L4.3,30.3z"/>
			</g>
		</g>
	</g>
	<g id="Group_248" transform="translate(0 0)">
		<g id="Group_22" transform="translate(7.133 45.784)">
			<g id="Group_21">
				<path id="Path_53" class="st0" d="M1.3,2.7c1,0,1.9,0.2,2.9,0.4c2.2,0.4,4,1.7,5.1,3.7C9.4,7,9.5,7.1,9.5,7.3l0.4,1.1
					c-0.1,0.2,0,0.4,0,0.6c0.8,4.4,0.5,10.3,0.5,14.9c0,0.6-0.1,0.9-0.1,1.4c0,1.4,0.1,2.9,0,4.2c-0.1,0.4-0.1,0.9,0,1.3
					C10.3,33,10,35,9.2,37c-0.8,1.6-2.1,2.8-3.8,3.4c-1.3,0.5-2.7,0.7-4.1,0.7v1.1h52.6c0.1,0,0.8-0.4,0.9-0.4
					c0.1-0.1,0.3-0.1,0.4-0.2c0.2-0.1,0.3-0.2,0.5-0.2l1.9-1.4c0.8-0.8,1.5-1.7,2.1-2.7l1.2-2.1c0.4-0.8,0.7-1.6,1-2.4l0.2-0.5
					l0.5-1.5c0.2-0.4,0.2-0.7,0.3-1.1s0.2-0.7,0.3-1.1c0.3-1.1,0.5-2.2,0.6-3.4c0.1-0.7,0.4-1.3,0.8-1.9s0.8-1.1,1.3-1.6
					c0.8-0.8,1.7-1.4,2.8-1.7c0.2-0.1,0.3-0.1,0.5-0.2l2.1-0.5c1.2-0.1,0.9,0.2,1-1.1c0-0.2,0.2-0.4-0.2-0.4h-28L44,19
					c1.4,0.7,5.8-0.3,8.1,4.6c0.1,0.2,0.2,0.4,0.3,0.7c0.3,1.1,0.3,0.2,0.3,1.9L51,31.4l-0.7,1.4c-0.5,0.9-1,1.7-1.6,2.5
					c-0.8,0.9-1.6,1.8-2.6,2.5l-1.5,1c-0.6,0.3-1.1,0.6-1.8,0.8c-0.5,0.1-0.4,0.2-0.8,0.3c-2.8,0.8-5.7,1.1-8.6,1.1
					c-1.2-0.1-2.3-0.2-3.4-0.4c-0.5-0.1-1.1-0.2-1.6-0.4c-1.9-0.4-3.6-1.4-4.9-2.8c-0.6-0.7-1.2-1.4-1.6-2.2c-0.4-0.9-0.8-1.9-1-2.9
					c-0.3-1.8-0.4-3.6-0.5-5.4c-0.3-1.6-0.1-10.6-0.1-12.6c0-0.6,0.1-0.8,0.1-1.3c0-1.2,0.1-2.5,0.4-3.7c0.2-1.4,0.8-2.7,1.8-3.8
					l0.8-0.7c0.3-0.2,0.6-0.4,0.8-0.6c0.6-0.4,1.3-0.6,2-0.8c1-0.3,2-0.4,3.1-0.5c0.7-0.1,0.4-0.4,0.4-1.5H1.3V2.7z"/>
				<path id="Path_54" class="st1" d="M53.8,43.5H0v-3.6h1.3c1.3,0,2.5-0.2,3.7-0.7c1.3-0.5,2.4-1.4,3.1-2.7c0.7-1.7,1-3.6,1-5.5
					c-0.1-0.5-0.1-1,0-1.6c0.1-0.9,0.1-1.8,0-2.7c0-0.5-0.1-1-0.1-1.4c0-0.3,0.1-0.6,0.1-0.8s0.1-0.4,0.1-0.7v-3.7
					c0.2-3.7,0-7.4-0.5-11v0.1c0-0.2-0.1-0.3-0.1-0.5l-0.4-1C8.1,7.6,8.1,7.6,8.1,7.5L8,7.3C7.1,5.7,5.6,4.7,3.9,4.4
					C3,4.2,2.1,4.1,1.2,4.1L0,4V0h30.8v1.9c0.1,1.3-0.5,2.1-1.6,2.2c-1,0.1-1.9,0.2-2.9,0.5c-0.6,0.2-1.1,0.4-1.7,0.7
					c-0.2,0.1-0.4,0.3-0.6,0.5l-0.8,0.6c-0.7,0.9-1.2,2-1.4,3.1c-0.2,1.2-0.3,2.3-0.4,3.5c0,0.4-0.1,0.6-0.1,0.8s-0.1,0.3-0.1,0.5
					v2.3c0,3.1-0.1,9,0.1,10.2c0.1,0.6,0.1,1.3,0.2,1.9c0,1.1,0.1,2.2,0.3,3.3c0.2,0.9,0.5,1.8,0.9,2.7c0.3,0.7,0.8,1.3,1.3,1.9
					c1.1,1.2,2.6,2.1,4.3,2.5h0.1c0.4,0.1,0.9,0.2,1.4,0.3s1,0.1,1.4,0.2c0.6,0.1,1.3,0.2,1.9,0.2c2.8,0,5.6-0.3,8.3-1h0.1
					c0.2-0.1,0.5-0.2,0.7-0.3c0.5-0.2,1-0.4,1.5-0.7l1.5-0.9c0.9-0.6,1.7-1.4,2.4-2.2c0.5-0.7,1-1.5,1.5-2.3l0.6-1.2l1.5-5.1V25
					L51,24.4l-0.1-0.1c0-0.1,0-0.2-0.1-0.3c-1.5-3.1-3.8-3.3-5.7-3.6c-0.7,0-1.3-0.2-1.9-0.5l-0.7-0.3l-0.3-3.1h29.4
					c0.4,0,0.9,0.2,1.2,0.5c0.3,0.3,0.4,0.8,0.3,1.2l0,0v0.5c0.1,0.9-0.5,1.6-1.3,1.8c-0.1,0-0.2,0-0.3,0h-0.4L69.2,21
					c-0.2,0.1-0.3,0.2-0.5,0.2c-0.9,0.3-1.7,0.8-2.3,1.5c-0.4,0.3-0.7,0.8-1,1.3l-0.1,0.1c-0.3,0.4-0.4,0.8-0.5,1.3
					c0,0.8-0.2,1.7-0.4,2.5c-0.1,0.2-0.1,0.4-0.2,1c0,0.4-0.1,0.9-0.3,1.3c-0.1,0.1-0.1,0.3-0.1,0.4c-0.1,0.2-0.1,0.5-0.2,0.8
					l-0.5,1.4C63,33,63,33.2,62.9,33.4c-0.1,0.3-0.2,0.5-0.3,0.7c-0.2,0.6-0.5,1.3-0.8,1.9l-0.1,0.1l-1.2,2.1l-0.3,0.5
					c-0.5,1-1.2,1.8-2.1,2.5L56,42.7c-0.1,0.1-0.3,0.1-0.4,0.2L55.5,43l-0.1,0.1c-0.1,0.1-0.2,0.2-0.4,0.2l0.1-0.3
					C54.4,43.4,54.2,43.5,53.8,43.5z M42.1,41h11.4c0.2-0.1,0.3-0.1,0.5-0.2l0.2-0.1l0.3-0.2c0.2-0.1,0.4-0.2,0.5-0.2l1.8-1.3
					c0.6-0.6,1.1-1.2,1.5-1.9l0.3-0.5l1.2-2c0.3-0.5,0.5-1.1,0.7-1.6c0.1-0.2,0.2-0.5,0.3-0.7c0.1-0.1,0.1-0.2,0.1-0.3l0.1-0.1
					l0.6-1.6c0-0.1,0.1-0.2,0.1-0.4c0.1-0.2,0.1-0.4,0.2-0.7c0.1-0.3,0.2-0.6,0.2-0.9v-0.1c0.1-0.5,0.2-1,0.3-1.4
					c0.2-0.6,0.3-1.3,0.3-1.9v-0.1c0.1-0.9,0.4-1.7,1-2.4c0.9-1.6,2.3-2.8,3.9-3.6H49.7c1.5,0.9,2.7,2.2,3.5,3.8
					c0.2,0.3,0.3,0.6,0.3,0.9c0,0.1,0.1,0.3,0.2,0.4c0.1,0.3,0.2,0.7,0.2,1.1v1L52,31.9l-0.7,1.4c-0.5,0.9-1.1,1.9-1.7,2.7l-0.1,0.1
					c-0.9,1-1.8,1.9-2.9,2.7l-0.1,0.1l-1.5,1c-0.6,0.4-1.3,0.7-2.1,0.9H43c-0.1,0-0.1,0-0.2,0.1c-0.2,0.1-0.4,0.2-0.6,0.3
					C42.2,41,42.2,41,42.1,41L42.1,41z M7.1,41h19.7c-1.7-0.6-3.2-1.6-4.4-2.9c-0.8-0.7-1.4-1.6-1.8-2.6s-0.8-2.1-1.1-3.1
					c-0.2-1.3-0.4-2.6-0.4-3.8c0-0.5,0-1.1-0.1-1.6c-0.2-1.3-0.2-5.7-0.2-10.6v-2.3c0-0.4,0.1-0.7,0.1-0.9s0.1-0.3,0.1-0.5
					c0-1.3,0.1-2.6,0.4-3.9c0.3-1.7,1.1-3.2,2.2-4.5l0.1-0.1l0.8-0.7c0.3-0.3,0.6-0.5,1-0.7c0.3-0.2,0.6-0.3,0.9-0.5h-18
					C8.1,3,9.5,4.4,10.2,6l0.1,0.2l0.2,0.3l0.1,0.1L11,7.8c0.1,0.3,0.1,0.6,0.2,0.8c0.5,3.8,0.7,7.6,0.5,11.4v3.6
					c0,0.5-0.1,0.7-0.1,1c0,0.2-0.1,0.3-0.1,0.5c0,0.4,0,0.9,0.1,1.3c0.1,1,0,2-0.1,3c-0.1,0.4-0.1,0.7,0,1.1v0.1
					c0.1,2.2-0.3,4.5-1.2,6.6C9.8,38.8,8.6,40.2,7.1,41L7.1,41z"/>
			</g>
		</g>
		<g id="Group_24" transform="translate(7.083 12.647)">
			<g id="Group_23">
				<path id="Path_55" class="st0" d="M1.3,2.3l2.8,0.4c0.8,0.2,1.6,0.5,2.4,0.9c0.1,0.1,0.2,0.2,0.3,0.2C8,4.5,9,5.6,9.5,7
					c0,0.1,0.1,0.3,0.2,0.4c0.1,0.1,0.1,0.3,0.2,0.4c0.1,0.3,0.2,0.6,0.2,1c0.1,0.6,0.2,1.3,0.3,1.9v9.4c0,1-0.2,1.9-0.4,2.8
					c-0.1,0.3-0.2,0.6-0.3,0.9c-0.5,1.5-1.6,2.8-3,3.6c-0.2,0.1-0.5,0.3-0.7,0.4l-1.6,0.6l-3,0.4v1.1h28.2c0-2.1-0.1-1-1.8-1.5
					c-0.3-0.1-0.5-0.2-0.8-0.3c-0.3,0-0.6-0.1-0.9-0.3c-2.1-0.7-3.7-2.2-4.7-4.2c-0.5-1.1-0.8-2.3-1-3.4c-0.3-2.2-0.1-5.4-0.1-7.6
					c0-0.4,0-0.7-0.1-1.1c-0.1-2.3,0-5.3,0-7.7C20.1,3.2,20,3,20,2.7c0.6-0.3,0.4-0.2,1-0.1c1.2,0.1,5.1,0,6.5,0
					c1.6,0.1,3.1,0.2,4.7,0.5c0.3,0.1,0.7,0.2,1.1,0.2C34.2,3.5,35,3.7,35.8,4l1.4,0.6c0.1,0.1,0.3,0.1,0.5,0.2l1,0.2
					c2.5,1.3,4.8,3.1,6.7,5.2c0.4,0.4,0.8,0.9,1.2,1.4l1.7,2.3l1.8,3.3c0.6,1.2,1.1,2.4,1.5,3.7c0.1,0.3,0.3,0.6,0.4,1l1,4.1
					c0.1,0.4,0.1,0.7,0.2,1.1c0.3,2,0.4,4,0.5,6l-0.3,3.5l-0.3,1c-0.3,0.9-0.8,1.7-1.5,2.3L50,41.2c-0.6,0.4-1.2,0.6-1.8,0.8
					c-0.3,0.1-0.7,0.2-1.1,0.3c-0.8,0.1-1.6,0.2-2.4,0.3c-0.1,0.3-0.3,1.1,0.2,1.1h27.8c0.4,0,0.3-0.7,0.3-1c0-0.4-1.1-0.4-1.6-0.4
					l-1.5-0.4c-1.9-0.6-3.5-1.8-4.6-3.4c-0.1-0.2-0.3-0.4-0.4-0.6l-0.6-1.4c-0.3-0.8,0.1-0.3,0.1-0.8v-4.9c0-0.6-0.3-0.9-0.3-1.5
					c-0.1-1.1-0.2-2.1-0.5-3.2c-0.1-0.4-0.1-0.4-0.2-0.7L63,23.1c-0.1-0.3-0.2-0.3-0.3-0.7c-0.9-2.9-2.1-5.6-3.7-8.1
					c-0.3-0.4-0.5-0.7-0.7-1s-0.5-0.7-0.8-1.1L53,7.6c-0.2-0.1-0.3-0.3-0.5-0.4C52.3,7,52.2,6.9,52,6.7c-0.9-0.7-1.8-1.3-2.7-1.8
					l-4.3-2c-0.2-0.1-0.4-0.1-0.7-0.3l-2.8-0.8c-0.5-0.1-1-0.2-1.5-0.3c-0.3,0-0.6,0-0.9-0.1C38.1,1.2,37,1,35.9,1H1.3V2.3z"/>
				<path id="Path_56" class="st1" d="M72.7,45H45c-0.5,0-0.9-0.2-1.2-0.6c-0.4-0.6-0.5-1.3-0.3-2l0.2-1l1-0.1
					c0.8-0.1,1.5-0.2,2.2-0.3c0.3,0,0.6-0.1,0.9-0.2c0.5-0.1,1-0.3,1.5-0.6l1.3-1c0.5-0.5,0.9-1.1,1.1-1.8l0.3-0.8l0.3-3.3
					c0-1.9-0.1-3.9-0.4-5.8c0-0.2-0.1-0.4-0.1-0.5c0-0.2-0.1-0.4-0.1-0.6l-1-4.1c-0.1-0.2-0.1-0.3-0.2-0.4c-0.1-0.2-0.1-0.3-0.2-0.5
					c-0.3-1.2-0.8-2.4-1.4-3.5L47.3,15l-1.6-2.2c-0.2-0.2-0.4-0.4-0.5-0.6c-0.2-0.2-0.4-0.4-0.6-0.7c-1.8-2-4-3.7-6.4-5l-1-0.5
					c-0.1,0-0.1,0-0.1-0.1c-0.1,0-0.2-0.1-0.4-0.1l-1.4-0.6c-0.7-0.3-1.5-0.5-2.2-0.6c-0.4-0.1-0.8-0.1-1.1-0.2
					c-1.5-0.3-3-0.4-4.5-0.5h-1.7c-1.5,0-3.3,0.1-4.4,0v2.4c-0.1,1.8-0.1,3.6,0,5.1c0,0.1,0,0.2,0.1,0.3c0,0.3,0.1,0.5,0.1,0.8v1.7
					c-0.1,1.9,0,3.8,0.1,5.8c0.1,1.1,0.4,2.1,0.9,3.1c0.8,1.7,2.2,2.9,3.9,3.5l0.1,0.1c0.2,0.1,0.4,0.2,0.7,0.2
					c0.2,0,0.4,0.1,0.6,0.2c0.1,0.1,0.2,0.1,0.3,0.1c0.3,0.1,0.6,0.1,0.9,0.1c0.5-0.1,1,0.1,1.4,0.4c0.5,0.5,0.5,1.1,0.5,2.2v1.3
					H0.1v-3.4L4,27.4l1.5-0.5c0.2-0.1,0.4-0.2,0.5-0.3c1.2-0.7,2-1.7,2.4-3l0.1-0.1c0.1-0.2,0.2-0.4,0.2-0.7C8.9,22,9,21.2,9.1,20.3
					V11c0-0.6-0.1-1.2-0.3-1.7V9.2c0-0.3-0.1-0.5-0.2-0.8c0-0.1,0-0.1-0.1-0.1c0-0.1-0.1-0.1-0.1-0.2c0.1-0.1,0.1-0.2,0-0.3
					c0-0.1,0-0.1-0.1-0.1C8,6.6,7.2,5.7,6.2,5.1L6,5c0-0.1-0.1-0.1-0.1-0.1c-0.6-0.3-1.3-0.6-2-0.8L0,3.5V0h35.8
					c1.2,0,2.4,0.2,3.6,0.5c0.2,0,0.4,0.1,0.6,0.1h0.2c0.6,0.1,1.1,0.2,1.6,0.4l3,0.9C44.9,2,45,2,45.1,2s0.2,0.1,0.4,0.1L45.4,2
					l4.3,2c1,0.5,2,1.2,2.9,1.9c0.2,0.2,0.4,0.4,0.6,0.5c0.1,0.1,0.1,0.1,0.2,0.1c0.1,0.1,0.2,0.2,0.3,0.3l0.1,0.1l4.7,4.8
					c0.2,0.3,0.4,0.6,0.6,0.8l0.2,0.3c0.1,0.1,0.2,0.2,0.3,0.3c0.2,0.2,0.4,0.5,0.5,0.8c1.7,2.6,3,5.5,3.9,8.4
					c0,0.1,0.1,0.1,0.1,0.2c0.1,0.2,0.1,0.4,0.2,0.6l0.5,2.3c0,0.1,0.1,0.2,0.1,0.3C65,25.9,65,26,65,26.2c0.2,1.1,0.4,2.2,0.5,3.3
					v0.1c0,0.1,0,0.3,0.1,0.4c0.1,0.4,0.2,0.7,0.2,1.1V36c0,0.2,0,0.3-0.1,0.5l0.5,1.1c0.1,0.1,0.2,0.3,0.3,0.4l0.1,0.1
					c0.9,1.4,2.3,2.4,3.9,2.9l1.4,0.4h0.2c2.4,0.1,2.4,1.3,2.4,1.6v0.1c0.1,0.6,0,1.2-0.4,1.7C73.5,44.8,73.1,45,72.7,45z
					 M50.6,42.5h17.1c-1.4-0.8-2.6-1.8-3.5-3.2c-0.2-0.3-0.3-0.5-0.5-0.7l-0.1-0.1L63,37.1c-0.1-0.3-0.2-0.5-0.3-0.8
					c0-0.3,0-0.5,0.2-0.8V31c0-0.2,0-0.3-0.1-0.5c-0.1-0.3-0.2-0.6-0.2-1c-0.1-1-0.2-2-0.4-3c0-0.1-0.1-0.2-0.1-0.3
					C62,26,62,25.9,62,25.7l-0.5-2.2c0,0,0-0.1-0.1-0.1c-0.1-0.1-0.1-0.3-0.2-0.5c-0.9-2.8-2.1-5.4-3.6-7.8
					c-0.2-0.2-0.3-0.4-0.4-0.6c-0.1-0.2-0.2-0.3-0.3-0.4l0-0.1c-0.2-0.3-0.4-0.5-0.5-0.8L52,8.8c-0.1-0.1-0.2-0.1-0.2-0.2
					c-0.1-0.1-0.2-0.1-0.3-0.2l-0.1-0.1c-0.1-0.1-0.3-0.2-0.4-0.4c-0.8-0.6-1.7-1.2-2.5-1.7l-4.2-2c-0.1,0-0.1-0.1-0.2-0.1
					C43.9,4,43.8,4,43.7,3.9L41,3.3c-0.4-0.1-0.8-0.2-1.2-0.3c-0.4,0-0.8,0-1.1-0.1c-1-0.2-2-0.4-3-0.4h-0.4c0.4,0.1,0.7,0.2,1,0.3
					l1.5,0.6c0,0,0.1,0.1,0.2,0.1c0.1,0.1,0.2,0.1,0.3,0.1l0.1,0.1L39.3,4c2.7,1.4,5.1,3.2,7.1,5.5c0.3,0.3,0.6,0.6,0.8,1
					c0.1,0.2,0.3,0.3,0.4,0.5l0.1,0.1l1.7,2.4l1.8,3.3c0.6,1.3,1.2,2.6,1.6,3.9c0.1,0.1,0.1,0.2,0.1,0.3c0.1,0.2,0.2,0.5,0.3,0.8
					l1,4.2c0.1,0.3,0.1,0.5,0.1,0.7s0.1,0.3,0.1,0.4c0.3,2,0.5,4.1,0.5,6.2v0.1l-0.3,3.7l-0.4,1.2c-0.4,1.1-1,2-1.8,2.8l-0.2,0.1
					L50.6,42.5z M7.1,28.7h17.4c-1.9-1-3.4-2.5-4.3-4.4c-0.5-1.2-0.9-2.5-1.1-3.8c-0.2-2-0.2-4.1-0.2-6.1v-1.7c0-0.2,0-0.3-0.1-0.5
					c0-0.2-0.1-0.3-0.1-0.5c-0.1-1.6-0.1-3.5-0.1-5.3V3.9c0-0.2,0-0.3-0.1-0.5c0-0.2-0.1-0.4-0.1-0.6V2.5H7.1
					c0.1,0.1,0.2,0.2,0.4,0.3c1.5,0.9,2.6,2.3,3.2,3.9c0.1,0.1,0.1,0.2,0.1,0.3c0,0.1,0,0.1,0.1,0.2L11,7.3c0,0,0,0.1,0.1,0.2
					c0.1,0.4,0.2,0.7,0.2,1.1c0.1,0.7,0.2,1.4,0.3,2.1v9.5c0,1-0.2,2.1-0.4,3.1c-0.1,0.3-0.2,0.7-0.4,1c-0.6,1.8-1.9,3.3-3.5,4.3
					C7.2,28.6,7.2,28.6,7.1,28.7z"/>
			</g>
		</g>
		<g id="Group_26">
			<g id="Group_25">
				<path id="Path_57" class="st0" d="M0.5,0.5H88v100.6H0.5V0.5z M0,101.6h88.5V0H0V101.6z"/>
			</g>
		</g>
	</g>
	<g id="Group_250" transform="translate(136.325 67.305)">
		<g id="Group_39" transform="translate(0 0)">
			<g id="Group_28" transform="translate(81.58 4.48)">
				<g id="Group_27" transform="translate(0)">
					<path id="Path_58" class="st0" d="M11.3,4.4c0.7-1.2,3.1-4.9,4.4-4.9C17.5-0.6,14.9,4.4,11.3,4.4z M5.5,2.3
						c0.2-0.9,1.2-2.7,1.4-3.7h1.3C7.5,0,6.6,1.2,5.5,2.3L5.5,2.3z M8.8-2.1H7.4c0.2-0.6,0.4-1.1,0.7-1.6c0.5-1.3,1.2-2.5,2-3.6
						c0.3-0.4,0.2-0.3,0.7-0.4C10.9-5.8,9.6-3.8,8.8-2.1L8.8-2.1z M44.2,2.4c0.3-1,0.7-2,1.2-3c0.8-1.9,1.7-3.8,2.7-5.6
						c0.2-0.5,0.5-0.9,0.8-1.3c0.3-0.5,0.5-0.9,1.1-1C51.1-7.3,45.7,1.3,44.2,2.4L44.2,2.4z M-16.6,4.4c0.3-1.1,3.2-4.7,1-4.9
						c-0.4,0-0.9,0.1-1.3,0.4c-1.6,1.1-3,2.4-4.4,3.8c-0.1,0.2-0.4,0.5-0.7,0.8c0.2-0.5,0.4-0.9,0.7-1.4c0.5-1.1,1.2-2.2,2-3.1
						l0.5-0.6c-2.6-0.3-2.3-0.6-4.8,4.2c-0.2,0.5-0.5,1-0.7,1.5c-0.8,1.6-1.6,3.2-2.2,4.9c2.9-0.2,1.9-0.5,3.9-3.4
						c1.1-1.8,2.5-3.4,4.3-4.7c2.6-1.7-4.2,7.7-0.7,8c0.2-0.5,0.4-1,0.6-1.5c0.3-0.5,0.5-0.9,0.9-1.3c0.5-0.9,1.1-1.7,1.8-2.4
						c0.3-0.4,0.7-0.8,1-1.1c0.4-0.4,1.8-2,2.5-1.6c0.8,0.4-0.1,1-0.3,1.4c-0.7,1.2-2.9,4.6-1.1,6.1c0.9,0.8,2.2,0.7,3.1-0.1
						c0.8-0.7,1.5-1.5,2-2.3c0,1.2,0.1,1.8,0.7,2.4s1.5,0.7,2.2,0.2c1.6-0.8,2.2-2.6,3-3.2c0,1.1-0.3,1.6,0.2,2.5
						c1,1.8,2.8,0.7,3.7-0.5l1.3-1.8c0,2.7,1.8,4.2,4.2,2.5c0.6-0.5,1.1-1,1.5-1.6l0.7-1c0,2.9,2.2,4,4.8,3.1c2-0.8,3.1-2.9,4-4.8
						c0.7-1.3,1.2-2.7,1.6-4.2c0.7,0,2.4,0,2.4,0.9v0.2c-0.1,1.6-4.3,5.6-1.6,7.7c1,0.8,2.2,0.2,3-0.7c0.1-0.1,0.1-0.1,0.1-0.2
						c0.4-0.4,0.7-0.8,1.1-1.3c0.1,2.3,2.5,4,5.4,0.1l0.1-0.2C30.1,7,30,7.1,30.1,7c0,1.8,1.2,3.6,3,2.5s2.2-2.6,3.1-3.3
						C35.9,7.1,36,8.1,36.4,9c0.5,0.7,1.4,0.9,2.2,0.7c0.7-0.4,1.3-0.9,1.7-1.5l1.1-1.7c0.2-0.3,0-0.1,0.2-0.2
						c0,1.8-0.2,2.8,1.1,3.4c1.2,0.4,2.5,0.1,3.5-0.7c0.8-0.7,1.5-1.6,2-2.5l1.1-2.3c0.2-0.5,0.3-0.4,0-1L47.6,6
						c-0.5,0.9-1.2,1.8-1.9,2.6c-1.1,0.8-2.3,0.7-2.5-0.9c-0.3-3.8,2-5,2.8-6.1c2.1-2.5,3.8-5.4,4.9-8.5c1.3-3.9-1.6-3.7-3.4-1.3
						c-2,2.6-3.1,5.9-4.3,9C42.9,1.9,42.5,3,42,4.1l-0.7,1.4C40.6,6.6,39.4,8.9,38,9c-0.2-0.7-0.3-1.5-0.1-2.2
						c0.4-1.3,1-2.6,1.7-3.9c0.4-0.5,0.8-1.2,1-1.8c-2.5,0-2.3-0.4-3.6,2.3c-0.9,1.8-2,3.5-3.5,4.9c-0.5,0.4-1,0.5-1.6,0.5
						c-0.3-1.6-0.4-1.5,0.6-3.6s2.4-3.9,4.2-5.2c1-0.7,2.6-1,3.1,0.5h0.5c0.2-0.8,0-1-0.8-1.5c-0.7-0.4-1.5-0.6-2.2-0.5
						c-3.6,0.3-5.6,3.4-6.9,6.4c-0.5,1.2-2.2,4.5-3.9,4c-1.3-0.4,0.1-3,0.4-3.7c2.8-6.5,3.3-6-0.3-6C27.1,1,27.1-0.1,26.3,2
						c-0.7,2.3-1.9,4.4-3.4,6.3c-0.4,0.5-0.6,0.5-1.4,0.5c-0.4-1.7,0.5-3.2,1.3-4.7c2.6-5.4,2.8-4.3-2.5-4.3c0.9-0.8,2-2,1.4-3.4
						c-0.1-0.5-0.6-0.8-1.1-0.7c-0.3,0.1-0.6,0.4-0.7,0.7c-0.4,1-0.5,2.4-0.9,3.5c-0.9,2.6-2.5,7.2-4.6,8.7c-2.8,1.9-4-0.1-3.3-2.8
						c0.2-1,0.3-0.5,2.2-1.1c0.5-0.2,1.1-0.4,1.6-0.7c4.5-3,2.6-7.3-1.6-4.5c-1.9,1.3-2.8,2.9-3.8,5C8.9,5.9,7.9,7.3,6.8,8.4
						C6.3,8.9,6,8.9,5.1,8.9L4.7,8.4C4.6,7.3,4.8,6.2,5.1,5.1c0.4-1.7,0.2-1.3,1.3-2.3c1.1-1.4,2.1-2.8,3-4.3c0.7,0,1.8,0.2,2.1-0.3
						c-0.2-0.7-0.7-0.4-1.7-0.4l0.9-1.9c0.5-1.2,1.6-3,1-4.3c0-0.6-0.6-1-1.2-0.8l0,0c-0.1,0.1-0.2,0.1-0.4,0.2C8-8,6.6-4.3,5.5-2.1
						c-1.3,0-2.1-0.4-2.1,0.7h1.7c0,0.8-1.4,4.1-1.7,5.1C2.9,5.3,2.1,6.8,0.9,8c-3.4,3.7-1.3-3,0.5-5.7c0.3-0.3,0.5-0.6,0.7-1
						c-1.9,0-2.2-0.5-3,1.1l-2.5,4.3C-6.9,11.7-8.9,8-4,2c0.8-1,2.6-3,4.2-2.4c0.3,0.1,0.5,0.3,0.7,0.5c0.4,0.5,0,0.4,0.6,0.5
						C2.3,0,1.3-0.7,0.7-1C-1-1.8-3-1.1-4.5-0.1c-2.7,1.8-3.3,4.9-4,6s-1.8,3.3-3.5,3.3c-0.5-1-0.2-1.7,0.2-2.7
						c0.5-1.3,3.3-6.6,3.4-7.1c-2.3,0-5.4,2.4-7,4.1C-15.9,3.7-16.3,4-16.6,4.4L-16.6,4.4z"/>
				</g>
			</g>
			<g id="Group_30" transform="translate(31.085 4.524)">
				<g id="Group_29">
					<path id="Path_59" class="st0" d="M-14.1,19.1c-1.1,0-1.7,0-1.7-1.3c0-2,2.4-3.5,3.9-4.2c1.9-0.9,3.9-1.6,6-2.2
						c-1,2.2-2.4,4.1-4.2,5.7C-11,17.9-12.8,19.1-14.1,19.1L-14.1,19.1z M-17.4,4.3c0.6-1.3,1.4-2.4,2.3-3.4
						c0.8-1.1,2.5-2.2,2.5-1.1c0,1.3-0.6,2.5-1.6,3.2S-16.3,4.2-17.4,4.3z M-23.6,2.2c1.1-2.9,2.4-5.7,3.9-8.4
						c0.4-0.7,1.1-2.1,1.9-2.3c0,1.4-0.4,2.7-1.1,3.9C-19.7-3-22.5,1.5-23.6,2.2L-23.6,2.2z M14.2,2.2c0.2-0.5,0.4-1,0.5-1.4
						c0.7-1.7,3.6-8.9,5.2-9.3C21-7.4,15.9,1.1,14.2,2.2L14.2,2.2z M5.8,6.5c0,1.1-0.2,1.9,0.3,2.7c1.1,1.7,3,0.2,3.9-0.9
						c0.2-0.3,0.4-0.6,0.7-0.9l0.5-0.8l0.2-0.2c0,1.8-0.2,2.9,1.1,3.4c2.4,1,4.5-1.3,5.5-3.2c0.4-0.7,1.5-2.5,1.2-3.2
						C18.4,4,18,5.3,17.5,6.1c-0.6,1-1.9,3.5-3.5,3.1c-0.5-0.1-0.8-0.6-0.9-1.3c-0.1-1.2,0.2-2.5,0.7-3.6c0.3-0.8,4.6-4.3,7-11
						c1.4-4-2-4.9-5.1,1.3L13,0.8c-0.3,1.1-0.7,2.2-1.2,3.3C11.1,5.4,9.5,9,7.7,9C7.3,7.5,8.1,5.9,8.6,4.8C8.9,4.2,9.2,3.7,9.5,3
						c0.4-0.6,0.7-1.2,1-1.8c-0.8,0-1.4-0.3-2,0C8.1,1.6,7.8,2,7.5,2.5C6.4,4.4,5.5,6.4,3.9,8c-2.7,2.6-3.3-0.1-1.2-3.5
						c0.5-0.9,1.1-1.9,1.8-2.7c0.8-1,2.7-3,4.2-2.2c1,0.5,0.1,0.9,1.3,0.9C10.6-2,4.1-3,1,3.2c-0.2,0.3-0.3,0.7-0.5,1
						c-0.4,1.2-1,2.3-1.7,3.3C-1.7,8-2.3,8.5-2.9,9c0.3-1.1,0.5-2.3,0.5-3.5v-2c0-0.8-0.2-1.1-0.2-1.9C-5.1,1.8-4.5,2.9-5.7,5
						c-4.5,7.6-7.8,3-1.4-3.9c0.8-0.8,2.9-2.6,4-1.3c0.5,0.6,0.2,0.8,1,1.3c0.2-0.2,0.3-0.5,0.4-0.8l-1.1-1c-3.7-2-7.3,1.6-8.8,4.8
						c-1,2.1-2.5,5.5-5.4,5.2c-1.4-0.2-1.2-2-1-3.1c0.2-1.1,0.2-1,0.9-1.2c4.8-1,7-5.4,4.5-6.2c-1.1-0.3-2.3,0-3.2,0.7
						c-2.7,1.7-2.9,3.7-4.4,6.1c-0.7,1.2-1.5,3.1-2.9,3.5C-24.5,9.5-25,8-24.8,6.8c0.5-3.3,1.4-3.4,3.1-5.4c1-1.3,7.2-10.4,4.1-11.4
						c-1.1-0.3-2.3,0.8-2.7,1.4c-1.5,2.2-2.7,4.6-3.6,7c-0.6,1.6-1.2,3.1-1.7,4.7s-1.9,5.4,0.2,6.5c1.1,0.5,2.3,0.4,3.3-0.3
						c0.8-0.6,1.5-1.4,2-2.3h0.3c-0.1,1.6,1.2,3,2.8,3c0,0,0,0,0.1,0c0.3,0,0.6,0,0.8-0.1c0.8-0.1,1.6-0.5,2.3-1.1
						c0.5-0.6,1-1.2,1.6-1.8c0,2.6,2.3,3.4,4.2,2c0.7-0.6,1.3-1.3,1.9-2.1l1.3-2c0.1-0.1,0.2-0.2,0.2-0.4c0.1,1.6-0.1,3.1-0.5,4.6
						c-0.4,1.6-0.9,1.3-3.2,2c-2.3,0.8-5.1,1.8-7,3.5c-3.4,3.1,0.3,7.1,5.4,3.9c2.9-1.9,5-4.6,6.2-7.8c0.4-1,1.6-1.3,2.7-2.5
						c0.4-0.4,0.4-0.7,0.8-1C-0.3,8,0,8.8,0.6,9.4C1.2,9.9,2.1,10,2.8,9.5C4.2,8.9,4.9,7.6,5.8,6.5L5.8,6.5z"/>
				</g>
			</g>
			<g id="Group_32" transform="translate(174.565 4.61)">
				<g id="Group_31">
					<path id="Path_60" class="st0" d="M-20.3,6.2c-0.1-1.7-2.1-1-2.1,0.4c0.1,0.5,0.2,1.1,0.4,1.6c-1.1,1.6-4.8,1.4-1-5.3
						c0.4-0.7,0.9-1.3,1.4-1.9c1.4-1.5,3.3-1.8,3.3-0.2c0.1,1.1-0.2,2.3-0.7,3.3C-19.3,4.9-19.7,5.6-20.3,6.2L-20.3,6.2z M-4.4,2
						C-4.3,1.4-4,0.8-3.7,0.2C-3.5-0.4-3.3-1-2.9-1.5h1.1c0,0.4-0.2,0.7-0.5,1C-2.9,0.4-3.6,1.3-4.4,2L-4.4,2z M-1.3-2.2h-1.4
						C-2.5-2.7-2.3-3.3-2-3.8c0.4-1.1,1.7-3.8,2.7-4.1C1.1-6.2-0.6-3.5-1.3-2.2z M12.8,2.1c0.3-1,0.7-2,1.2-3s0.8-1.9,1.3-2.8
						s0.9-1.8,1.4-2.7c0.4-0.7,1.1-2,1.9-2.3c0,2.1-1.3,4.3-2.3,6C15.7-1.5,13.8,1.5,12.8,2.1L12.8,2.1z M-7.7,6.7
						c0,5.2,5.2,2.8,5.8,0.5c0.7,0.5,0,1.4,1,2.2c2.3,1.9,4.6-2.5,5.3-3c0,1-0.4,1.7,0.2,2.6C6,11.2,8.2,8.8,9.1,7.4l0.4-0.5
						c-0.1-0.1,0-0.2,0-0.3c0.2-0.3,0.1-0.1,0.2-0.2c0,1.7,0,2.8,1.3,3.3c1.2,0.4,2.5,0.1,3.4-0.7c0.4-0.4,0.8-0.7,1.1-1.1
						c0.8-1.1,1.5-2.4,2-3.7c0.2-0.5,0.3-0.4,0.1-0.9c-0.8,0.5-1.5,2.3-2,3.1c-2.9,5.1-5.5,2.5-3.5-2.3c0.5-0.8,1.1-1.5,1.8-2.1
						c1.4-1.6,2.6-3.5,3.6-5.4c0.6-1.1,1.1-2.3,1.6-3.5c0.5-1.4,0.4-3.6-1.6-2.9c-1.8,0.7-3.4,4.1-4.3,6C12.4-2,11.6-0.2,11,1.6
						c-0.3,1.3-0.8,2.6-1.6,3.7c-3.1,6-4.9,4.3-2.5-0.7l1.6-2.5C8.7,1.7,8.9,1.6,9,1.2c-2.8,0-2-0.8-4.5,3.7
						C3.8,6.2,2.8,7.4,1.7,8.5c-2,1.6-3.1-1.1,1-6.3c0.7-0.9,1.6-1.7,2.5-2.3C6.1-0.6,7-0.9,7.7,0c0.5,0.7-0.2,0.5,0.7,0.5
						c0.7-1.6-2.7-3.1-6.2-0.7c-2.7,1.9-3.4,5.1-4,6.1c-1.1,1.8-1.9,3-3.7,3c-0.7-1-0.5-1.6-0.1-3.1c0.5-1.9,0.1-1.6,1.2-2.7
						C-3.1,1.8-1.9,0.3-1-1.4c1.3,0,1.7,0.2,2.1-0.3C0.9-2.3,1-2.1-0.6-2.1c0.8-1.4,2.6-4.7,2-6.2C0.6-10.5-1.9-7.9-3-5.9l-2,3.8
						c-2,0-2.1-0.2-2.1,0.7h1.8L-6.8,3c-0.1,0.5-0.3,1.1-0.5,1.6c-0.6,1.3-1.4,2.6-2.3,3.7c-0.5,0.5-0.6,0.6-1.6,0.6
						c-0.7-2.8,3.9-8.1,2.9-9c-0.2-0.2-1.3,0-1.9,0h-2.1c0.5-0.8,1.2-1,1.4-2.2c0.4-1.8-1.7-3.1-2.1-0.7c-0.5,3.5-2.2,8-4.3,10.7
						c-0.3,0.4-0.6,0.7-1,1c-0.7,0.5-2.3,0.7-2.4-0.5l0.6-0.5c1.6-1.8,3.6-5.6,2.2-7.9c-1.8-2.8-7.5,1-8.5,6.4
						c-0.3,1.6,0.1,3,1.1,3.5c0.6,0.3,1.4,0.3,2,0.1c0.7-0.1,1.3-0.4,1.8-0.9c4.2,2.8,6.6-3.6,7.8-6.6c0.2-0.5,0.4-1.1,0.7-1.6
						c1.1,0,2.9,0.3,2.2,1.6c-0.9,1.7-3.4,5.1-1.8,7c0.5,0.6,1.4,0.8,2.1,0.4C-9.9,9.4-9.4,8.9-9,8.4c0.2-0.2,0.5-0.5,0.7-0.7
						L-7.7,6.7z"/>
				</g>
			</g>
			<g id="Group_34">
				<g id="Group_33">
					<path id="Path_61" class="st0" d="M-18.7-1c1.5-2,3.3-3.8,5.3-5.3c1.1-0.8,2.2-1.4,3.4-1.9c2.9-1,9.3-1.8,8.5,2.6
						c-0.4,2.5-2.7,4-5.1,4.6c-3.5,0.8-7.1,1-10.6,0.4C-17.7-0.9-18.2-1-18.7-1z M-11.9,9.1c-0.4,1.8-1.3,4.5,0,6.3
						c1.5,2,4.3,0.3,5.5-0.7c1.7-1.4,5.4-8.4,3.5-6.6C-3,8.2-5.2,13.3-8,14.8c-3.9,2.2-2.4-4.3-1.2-7.2C-7.3,3.1-4.1,1.7-6,0
						c-1.5,0.1-2.2,2.1-3.1,3.6c-2,3.3-6.8,8.5-10.1,10.1c-5,2.5-6.7-0.5-5.1-5.5c1.4-4.4,4.6-8,4.8-8.8c1.3,0.1,2,0.7,4.8,0.7
						c0.7,0,0.8,0.2,1.7,0.2c3.6,0,7.7-0.5,10.5-2.5l0.6-0.5c4.4-3.7,0.8-9.4-7.8-6.9c-1,0.3-1.9,0.7-2.8,1c-4.1,2-7.4,6.1-8.3,6.8
						c-0.6-0.2-1.1-0.5-1.5-0.8c-0.5-0.3-0.9-0.7-1.2-1.1c-1.7-1.7-0.3-2.3-0.8-3.4c-1.5,0.2-1.2,2.8-0.5,3.7c0.9,1,2,1.8,3.2,2.3
						l-2.1,3.3c-1.2,2-2.8,5.3-2.8,7.9s0,4.6,2.6,5.7c1.7,0.7,4.8-0.4,6.2-1.4c1.6-1.1,3-2.3,4.4-3.7L-11.9,9.1z"/>
				</g>
			</g>
			<g id="Group_36" transform="translate(158.525 13.085)">
				<g id="Group_35">
					<path id="Path_62" class="st0" d="M-17.4-5.5l-0.1,0.3L-17.4-5.5z M-18.5,0.6c-0.4,0-0.8-0.1-1.1-0.3c0.1-0.5,0.3-1,0.6-1.4
						l2.2-3.8c0.5-0.8,1-1.6,1.6-2.4c0.5-0.7,1.2-1.6,2.3-1.6S-12.2-7-12.5-6c-0.4,1-0.9,1.9-1.5,2.8c-0.2,0.4-0.5,0.8-0.9,1.1
						C-15.7-1.4-17.5,0.6-18.5,0.6L-18.5,0.6z M-17.4-5.5c0-0.5,0.1-1.1,0.3-1.6c0.1-0.6,0.2-1.2,0.1-1.7c0-0.9-0.1-0.9-1-0.8
						c-0.5,0-1.1,0.1-1.6,0.2c-0.1,0.2,0.3,0.6,0.3,1.3c-0.1,1-0.3,2-0.7,2.9c-0.3,0.4-0.5,0.9-0.5,1.4h0.5c-0.9,2.4-1.9,4.6-3,6.9
						l-2.5,4.8c-0.4,0.6-0.7,1-1,1.6c1.3,0,2.2,0.6,3-0.5c1.1-2.2,2-4.4,2.8-6.7c0.2-0.5,0.4-0.9,0.5-1.4c0.7-0.1,1,0.2,1.6,0.3
						s1.2,0,1.8-0.1c1-0.2,1.9-0.7,2.6-1.4c6-6,3.1-13.2-1.6-7.6c-0.3,0.4-0.5,0.7-0.8,1.1C-16.7-6.3-17-5.9-17.4-5.5L-17.4-5.5z"/>
				</g>
			</g>
			<g id="Group_38" transform="translate(109.456 26.009)">
				<g id="Group_37">
					<path id="Path_63" class="st0" d="M-26.5-9.2c0,1.2,1.6,0.8,1.6-0.3C-24.9-10.2-26.5-10.2-26.5-9.2z"/>
				</g>
			</g>
		</g>
	</g>
</g>
</svg>
